<?xml version="1.0" encoding="UTF-8"?>
<svg id="Layer_1" xmlns="http://www.w3.org/2000/svg" version="1.1" viewBox="0 0 802.3 142.7">
  <!-- Generator: Adobe Illustrator 29.0.0, SVG Export Plug-In . SVG Version: 2.1.0 Build 186)  -->
  <defs>
    <style>
      .st0 {
        fill: #00d4d0;
      }

      .st1 {
        isolation: isolate;
      }

      .st2 {
        fill: #fff;
      }
    </style>
  </defs>
  <circle class="st2" cx="134.9" cy="43.9" r="7.4"/>
  <path class="st0" d="M125.9,75.7c0,9.8-8,17.9-17.9,17.9-4.6,0-9.1-1.7-12.2-4.9,4.4,13.7,15.5,24.6,29.4,28.3,16.4-6.9,27.9-22.7,27.9-41.6h-27.2v.2h0Z"/>
  <path class="st0" d="M118,22.3v9.1c-3.3-.7-6.6-1.1-9.9-1.1-24.9,0-45.1,20-45.1,44.9v.2c0,24.7,20.1,45.1,45.1,45.1s7.9-.5,11.7-1.6c-16.6-6.6-28.5-22.3-29.4-41.1-.2-.8-.2-1.7-.2-2.4,0-9.8,8-17.9,17.9-17.9h45.1c-.2-19.4-16-35.1-35.1-35.1h0ZM134.7,50.8c-3.9,0-7-3.1-7.1-7.1,0-3.7,3.3-7.1,7.1-7.1s7.1,3.1,7.1,7.1-3.1,7.1-7.1,7.1Z"/>
  <path class="st0" d="M135.2,43.9c0,1.6,1.3,2.9,2.9,2.9s2.9-1.3,2.9-2.9-1.3-2.9-2.9-2.9c-1.6.2-2.9,1.3-2.9,2.9Z"/>
  <g class="st1">
    <g class="st1">
      <path d="M199.2,58.2c1.6-2.8,3.7-5,6.5-6.6s6-2.4,9.6-2.4,8.1,1.2,11.2,3.5,5.2,5.5,6.2,9.4h-9.8c-.7-1.6-1.7-2.7-3.1-3.5-1.3-.8-2.9-1.2-4.5-1.2-2.7,0-5,1-6.7,2.9s-2.6,4.5-2.6,7.7.8,5.8,2.6,7.7,4,2.9,6.7,2.9,3.2-.4,4.5-1.2,2.4-2,3.1-3.5h9.8c-1.1,4-3.1,7.1-6.2,9.4-3.1,2.3-6.9,3.4-11.2,3.4s-6.8-.8-9.6-2.4c-2.8-1.6-5-3.8-6.5-6.6s-2.4-6-2.4-9.7.8-6.9,2.4-9.7h0Z"/>
      <path d="M265.3,60.1c2,2.2,3.1,5.3,3.1,9.2v17h-8.9v-15.9c0-2-.5-3.5-1.5-4.5-1-1.1-2.4-1.7-4.1-1.7s-3.1.6-4.1,1.7c-1,1.1-1.5,2.6-1.5,4.5v15.9h-8.9v-38.8h8.9v13.5c.9-1.3,2.1-2.3,3.7-3.1s3.3-1.2,5.3-1.2c3.4,0,6,1.1,8.1,3.3h-.2Z"/>
      <path d="M275.6,63.8c1.2-2.2,2.6-4.1,4.6-5.2,2-1.2,4.1-1.8,6.5-1.8s3.9.4,5.5,1.2,2.7,1.9,3.6,3.3v-4.1h8.9v29.2h-8.9v-4.1c-.9,1.3-2.1,2.5-3.6,3.3s-3.4,1.2-5.5,1.2-4.5-.6-6.5-1.8-3.5-3-4.6-5.3-1.7-5-1.7-7.9.6-5.6,1.7-7.9h0ZM293.8,66.5c-1.2-1.3-2.7-1.9-4.5-1.9s-3.3.7-4.5,1.9-1.8,3.1-1.8,5.3.6,4,1.8,5.3,2.7,2,4.5,2,3.3-.7,4.5-1.9c1.2-1.3,1.8-3.1,1.8-5.3s-.7-4-1.8-5.3h0Z"/>
      <path d="M358.1,60.1c2.1,2.2,3.2,5.3,3.2,9.2v17h-8.9v-15.9c0-1.9-.5-3.3-1.5-4.4-1-1-2.4-1.6-4.1-1.6s-3.1.5-4.1,1.6-1.5,2.5-1.5,4.4v15.9h-8.9v-15.9c0-1.9-.5-3.3-1.5-4.4s-2.4-1.6-4.1-1.6-3.1.5-4.1,1.6c-1,1-1.5,2.5-1.5,4.4v15.9h-8.9v-29.2h8.9v3.6c.9-1.2,2.1-2.1,3.6-2.9s3.1-1.1,5-1.1,4.1.5,5.9,1.4c1.7.9,3.1,2.3,4.1,4.1,1-1.6,2.4-2.9,4.1-4,1.7-1,3.6-1.5,5.7-1.5,3.6,0,6.5,1.1,8.7,3.3h.2Z"/>
      <path d="M396,74h-20.3c.2,1.8.7,3.2,1.7,4.1,1,1,2.3,1.4,3.8,1.4,2.2,0,3.8-.9,4.6-2.8h9.5c-.5,1.9-1.4,3.6-2.6,5.2s-2.9,2.7-4.8,3.6-4.1,1.3-6.4,1.3-5.4-.6-7.6-1.8-4-3-5.2-5.2c-1.2-2.2-1.9-5-1.9-7.9s.6-5.7,1.8-7.9c1.2-2.2,3-4.1,5.2-5.2,2.2-1.2,4.8-1.8,7.7-1.8s5.4.6,7.5,1.8c2.2,1.2,3.9,2.9,5.1,5,1.2,2.2,1.8,4.8,1.8,7.7s0,1.7-.2,2.6l.2-.2ZM387,68.9c0-1.6-.5-2.7-1.6-3.6s-2.4-1.3-4-1.3-2.7.4-3.8,1.3c-1,.9-1.7,2.1-1.9,3.7h11.2,0Z"/>
      <path d="M410.8,47.7v38.8h-8.9v-38.8s8.9,0,8.9,0Z"/>
      <path d="M445.7,74h-20.3c.2,1.8.7,3.2,1.7,4.1,1,1,2.3,1.4,3.8,1.4,2.2,0,3.8-.9,4.6-2.8h9.5c-.5,1.9-1.4,3.6-2.6,5.2s-2.9,2.7-4.8,3.6-4.1,1.3-6.4,1.3-5.4-.6-7.6-1.8-4-3-5.2-5.2c-1.2-2.2-1.9-5-1.9-7.9s.6-5.7,1.8-7.9c1.2-2.2,3-4.1,5.2-5.2,2.2-1.2,4.8-1.8,7.7-1.8s5.4.6,7.5,1.8,3.9,2.9,5.1,5c1.2,2.2,1.8,4.8,1.8,7.7s0,1.7-.2,2.6l.2-.2ZM436.7,68.9c0-1.6-.5-2.7-1.6-3.6s-2.4-1.3-4-1.3-2.7.4-3.8,1.3c-1,.9-1.7,2.1-1.9,3.7h11.2,0Z"/>
      <path d="M457.1,85c-2.3-1.2-4.1-3-5.4-5.2-1.3-2.2-2-5-2-7.9s.7-5.6,2-7.9c1.3-2.3,3.1-4.1,5.5-5.3,2.3-1.2,4.9-1.8,7.8-1.8s5.5.6,7.8,1.8c2.3,1.2,4.1,3,5.5,5.3s2,5,2,7.9-.7,5.6-2,7.9c-1.3,2.3-3.1,4.1-5.5,5.3s-4.9,1.8-7.8,1.8-5.5-.6-7.7-1.8h-.2ZM469.2,77.2c1.2-1.2,1.8-3.1,1.8-5.4s-.6-4.1-1.7-5.4c-1.2-1.2-2.6-1.9-4.3-1.9s-3.2.7-4.4,1.8c-1.2,1.2-1.7,3.1-1.7,5.5s.6,4.1,1.7,5.4,2.6,1.9,4.3,1.9,3.1-.7,4.4-1.9h0Z"/>
      <path d="M511.9,60.1c2.1,2.2,3.1,5.3,3.1,9.2v17h-8.9v-15.9c0-2-.5-3.5-1.5-4.5s-2.4-1.7-4.1-1.7-3.1.6-4.1,1.7c-1,1.1-1.5,2.6-1.5,4.5v15.9h-8.9v-29.2h8.9v3.9c.9-1.3,2.1-2.3,3.6-3.1,1.6-.7,3.2-1.2,5.2-1.2,3.4,0,6.1,1.1,8.2,3.3h0Z"/>
    </g>
    <g class="st1">
      <path d="M536.3,58.5c1.6-2.8,3.8-5,6.5-6.7,2.8-1.6,5.9-2.4,9.3-2.4s7.4,1,10.4,2.9,5.1,4.6,6.5,8.2h-5.7c-1-2.2-2.5-3.9-4.4-5-1.9-1.2-4.2-1.8-6.9-1.8s-4.8.6-6.9,1.8c-2,1.2-3.6,2.9-4.8,5s-1.7,4.7-1.7,7.7.6,5.5,1.7,7.6,2.7,3.9,4.8,5c2,1.2,4.3,1.8,6.9,1.8s5-.6,6.9-1.7,3.4-2.9,4.4-5h5.7c-1.3,3.5-3.6,6.2-6.5,8.1-3,1.9-6.4,2.9-10.4,2.9s-6.4-.8-9.3-2.4-5-3.8-6.5-6.6-2.4-6-2.4-9.6.8-6.8,2.4-9.6v-.2Z"/>
      <path d="M585.4,58.5c1.6-.9,3.5-1.3,5.7-1.3v5h-1.2c-5.4,0-8,2.9-8,8.7v15.6h-4.8v-28.7h4.8v4.6c.8-1.7,2.1-2.9,3.6-3.8h0Z"/>
      <path d="M623.6,73.8h-22.9c.2,2.8,1.2,5,2.9,6.6s3.9,2.4,6.4,2.4,3.8-.5,5.1-1.4c1.4-1,2.3-2.2,2.9-3.9h5.1c-.7,2.7-2.3,5-4.6,6.7s-5.1,2.6-8.6,2.6-5.1-.6-7.3-1.8-3.8-3-5-5.2c-1.2-2.2-1.8-4.9-1.8-7.9s.6-5.5,1.8-7.8c1.2-2.2,2.9-4,5-5.1,2.1-1.2,4.6-1.8,7.4-1.8s5.1.6,7.2,1.8c2.1,1.2,3.7,2.8,4.9,4.9,1.2,2.1,1.7,4.5,1.7,7s0,1.9-.2,2.9h0ZM617.6,65.3c-.8-1.3-1.9-2.3-3.3-3s-2.9-1-4.5-1c-2.4,0-4.5.7-6.1,2.3-1.7,1.6-2.6,3.6-2.9,6.4h18.1c0-1.8-.4-3.4-1.2-4.7Z"/>
      <path d="M631,64.2c1.2-2.2,2.8-4,4.9-5.1,2.1-1.2,4.4-1.8,6.9-1.8s4.7.6,6.5,1.7,3.2,2.5,4.1,4.1v-5.2h4.8v28.7h-4.8v-5.4c-.9,1.7-2.3,3.1-4.2,4.1s-4.1,1.7-6.5,1.7-4.9-.7-6.9-1.9-3.7-3.1-4.9-5.3c-1.2-2.2-1.8-4.9-1.8-7.8s.6-5.5,1.8-7.7h0ZM652.2,66.3c-.9-1.6-2.1-2.8-3.6-3.7-1.5-.8-3.1-1.3-4.9-1.3s-3.4.4-4.9,1.2c-1.5.8-2.6,2.1-3.5,3.6-.9,1.6-1.3,3.5-1.3,5.6s.4,4.1,1.3,5.7c.9,1.7,2.1,2.9,3.5,3.7,1.5.8,3.1,1.3,4.9,1.3s3.4-.4,4.9-1.3c1.5-.8,2.6-2.1,3.6-3.7s1.3-3.6,1.3-5.7-.4-4.1-1.3-5.6v.2Z"/>
      <path d="M673.2,61.6v17c0,1.4.3,2.4.9,3,.6.6,1.7.8,3.1.8h3.5v4.1h-4.3c-2.6,0-4.6-.6-6-1.8-1.3-1.2-2-3.2-2-6v-17h-3.7v-4h3.7v-7.2h4.8v7.2h7.5v4h-7.5,0Z"/>
      <path d="M692.7,85c-2.1-1.2-3.9-3-5.1-5.2-1.2-2.2-1.8-4.9-1.8-7.9s.7-5.5,1.9-7.8c1.2-2.2,3-4,5.2-5.2s4.6-1.8,7.4-1.8,5.2.6,7.4,1.8c2.2,1.2,4,2.9,5.2,5.1,1.2,2.2,1.9,4.8,1.9,7.8s-.7,5.5-2,7.9c-1.3,2.3-3.1,4-5.3,5.2s-4.7,1.8-7.4,1.8-5.1-.6-7.3-1.8h0ZM704.8,81.5c1.5-.8,2.7-2,3.6-3.6.9-1.6,1.4-3.6,1.4-5.9s-.4-4.3-1.3-5.9-2.1-2.8-3.6-3.6c-1.5-.8-3.1-1.2-4.8-1.2s-3.3.4-4.8,1.2c-1.5.8-2.6,2-3.5,3.6-.9,1.6-1.3,3.6-1.3,5.9s.4,4.3,1.3,6c.8,1.6,2,2.8,3.4,3.6,1.4.8,3,1.2,4.7,1.2s3.3-.4,4.8-1.2h0Z"/>
      <path d="M730.3,58.5c1.6-.9,3.5-1.3,5.7-1.3v5h-1.2c-5.4,0-8,2.9-8,8.7v15.6h-4.8v-28.7h4.8v4.6c.8-1.7,2.1-2.9,3.6-3.8h0Z"/>
    </g>
  </g>
</svg>