<svg width="220" height="159" viewBox="0 0 220 159" fill="none" xmlns="http://www.w3.org/2000/svg">
<g clip-path="url(#clip0_3930_10854)">
<path d="M219.999 144.276C219.989 143.511 219.98 143.04 219.59 142.973C219.167 142.869 218.416 142.921 217.845 142.921C217.669 142.921 216.414 142.935 214.417 142.935H206.177V140.824C206.439 140.824 206.653 140.61 206.653 140.349V132.389C206.653 129.128 204 126.475 200.738 126.475H191.542V49.8963C198.047 49.825 204.779 49.749 210.637 49.749C215.843 49.749 218.981 49.3543 218.981 43.644C218.981 43.2303 219.024 42.8214 219.034 42.4078C219.238 38.005 219.252 33.5736 219.062 29.1756C219.024 28.082 218.877 26.6414 218.411 25.6667C217.422 23.5984 214.85 23.0183 212.315 22.9565C207.979 22.8614 200.11 23.0278 195.75 22.9898C194.219 22.9708 192.84 22.9613 191.542 22.9565V20.5697C191.542 13.1191 186.788 9.99533 180.925 9.99533H117.484C113.742 4.43714 106.272 -1.4919 91.7708 0.338636C85.9416 1.07085 80.4548 4.29926 76.8555 8.9398C76.5892 9.28213 76.342 9.63873 76.0995 9.99533H20.9123C13.961 9.99533 10.3047 13.6421 10.3047 20.5697V43.2779C5.84004 46.3779 2.63541 50.8806 1.71301 57.518C0.338915 67.4077 4.32807 74.611 10.3047 79.4322V136.978C10.3047 145.075 15.0498 147.547 20.9123 147.547H53.572V152.492C53.572 152.711 53.5862 152.925 53.61 153.139C53.8905 155.711 55.8304 157.794 58.3361 158.293C58.707 158.364 59.0921 158.407 59.4868 158.407H200.738C204 158.407 206.653 155.754 206.653 152.492V151.731C206.653 151.47 206.439 151.256 206.177 151.256V149.863C208.783 149.849 211.151 149.83 213.138 149.811C216.462 149.773 218.763 149.725 219.438 149.687C219.795 149.654 219.985 149.425 219.989 148.398C220.004 146.939 220.004 145.46 219.999 144.276Z" fill="#4F9FFF"/>
<path d="M2.70971 86.1458C1.43547 86.1648 0.555857 86.8067 0.189749 87.7909C0.0851467 88.0666 0.0233362 88.3662 0.00431764 88.6895C-0.0812661 90.1825 1.11691 91.2808 2.58134 91.3046C3.29929 91.2618 3.91264 91.0668 4.44991 90.5866C4.95391 90.1302 5.20115 89.4788 5.2059 88.9035C5.21066 88.428 5.11557 87.9811 4.93489 87.5912C4.5355 86.7211 3.72245 86.1315 2.70971 86.1458Z" fill="#4F9FFF"/>
<path opacity="0.5" d="M207.153 43.4726C208.023 44.0812 209.15 44.3665 210.187 44.1287C211.694 43.7816 212.821 42.2839 212.844 40.7339C212.897 37.477 208.988 36.9397 207.201 38.0666C205.308 39.26 205.365 42.2221 207.153 43.4726Z" fill="white"/>
<path opacity="0.7" d="M219.998 144.276C219.988 143.511 219.979 143.04 219.589 142.974C219.165 142.869 218.414 142.921 217.844 142.921C217.668 142.921 216.413 142.936 214.416 142.936H206.176V149.863C208.781 149.849 211.149 149.83 213.137 149.811C216.46 149.773 218.761 149.725 219.437 149.687C219.793 149.654 219.983 149.426 219.988 148.399C220.002 146.939 220.002 145.46 219.998 144.276Z" fill="white"/>
<path opacity="0.25" d="M191.539 27.1169V49.8964C198.043 49.8251 204.776 49.749 210.634 49.749C215.84 49.749 218.978 49.3544 218.978 43.644C218.978 43.2304 219.021 42.8215 219.03 42.4078C219.235 38.005 219.249 33.5737 219.059 29.1756C219.021 28.0821 218.874 26.6414 218.408 25.6667C217.419 23.5984 214.846 23.0184 212.312 22.9565C207.976 22.8614 200.107 23.0279 195.747 22.9898C194.216 22.9708 192.837 22.9613 191.539 22.9565V27.1169ZM207.201 38.0668C208.989 36.94 212.897 37.4772 212.845 40.7342C212.821 42.2842 211.694 43.7819 210.187 44.129C209.15 44.3667 208.023 44.0814 207.153 43.4729C205.366 42.2224 205.309 39.2602 207.201 38.0668Z" fill="white"/>
<path opacity="0.75" d="M120.952 17.9925C122.164 24.0832 123.643 41.314 106.217 50.5428L106.117 50.5951C106.15 50.5951 106.179 50.5999 106.208 50.6046C108.342 50.8091 110.572 51.0515 112.883 51.313C131.673 53.4479 142.272 62.5007 145.082 75.1814C146.693 82.418 147.273 90.0064 147.373 91.5897C148.088 91.5897 148.817 91.5897 149.557 91.5897C150.296 91.5897 151.046 91.5892 151.803 91.5887C153.696 91.5878 155.634 91.5859 157.57 91.584C158.344 91.583 159.118 91.5821 159.888 91.5811C162.969 91.5773 165.992 91.5731 168.758 91.5688C169.45 91.5678 170.125 91.5669 170.781 91.5659C172.422 91.5635 173.943 91.5616 175.295 91.5597C175.835 91.5593 176.349 91.5583 176.833 91.5583C177.075 91.5583 177.309 91.5583 177.535 91.5578C177.988 91.5578 178.409 91.5574 178.795 91.5569C178.988 91.5569 179.172 91.5569 179.348 91.5569C179.348 91.5569 186.542 91.0196 183.442 98.57L175.62 118.839L172.672 126.475H191.539V71.4732C185.672 71.468 180.416 70.9754 175.707 70.0839L175.442 79.8818L175.344 83.4763C175.325 83.9228 175.112 84.1396 174.936 84.2442C174.912 84.2609 174.886 84.2732 174.865 84.2832C174.306 84.5485 173.519 84.1753 172.756 83.8111C172.621 83.7488 172.486 83.6865 172.366 83.6333L154.346 75.5551C153.018 74.9755 152.182 74.4782 152.108 73.813C152.088 73.6276 152.115 73.2729 152.529 72.971L161.703 66.4433L162.399 65.9483C150.703 60.606 144.054 52.0438 140.354 43.2026C138.053 37.7109 136.888 32.1147 136.356 27.1176C135.319 17.4276 136.641 9.99609 136.641 9.99609H117.48C117.96 10.7093 118.383 11.4177 118.749 12.0976C120.157 14.7412 120.765 17.0377 120.951 17.9934L120.952 17.9925Z" fill="white"/>
<path opacity="0.75" d="M153.09 73.743L153.086 73.7449C153.19 73.8852 153.556 74.169 154.739 74.6864L172.758 82.7645C172.883 82.8159 173.022 82.8867 173.169 82.9537C173.489 83.1068 174.128 83.4092 174.404 83.4254L174.519 79.1805L174.767 69.8894C170.55 69.0293 166.776 67.8487 163.411 66.4019L162.296 67.1949L153.09 73.7435L153.09 73.743Z" fill="white"/>
<path opacity="0.65" d="M175.081 58.0874C174.671 58.309 173.908 58.908 173.625 59.132L173.606 59.1463L163.41 66.4009C166.774 67.8477 170.549 69.0283 174.766 69.8884L175.082 58.0869L175.081 58.0874Z" fill="white"/>
<path opacity="0.65" d="M136.358 27.1166C136.89 32.1138 138.055 37.71 140.356 43.2016C144.056 52.0429 150.705 60.605 162.401 65.9474L173.045 58.3803C174.493 57.2397 175.061 56.8959 175.563 57.1104C175.833 57.2245 175.992 57.4808 176.033 57.8664L176.036 57.9282L175.708 70.0839C180.418 70.9754 185.673 71.468 191.54 71.4732V49.8966C191.369 49.8966 191.198 49.9014 191.027 49.9014C183.415 49.987 176.159 50.0488 171.024 49.9537C168.989 49.9109 164.496 50.4529 164.462 45.2941C164.462 44.1815 164.453 43.0737 164.453 41.9516C164.453 37.1066 164.481 32.1428 164.339 27.3691C164.206 22.5289 169.707 23.0281 171.851 23.0281C179.535 23.0281 183.709 22.9235 191.027 22.9568H191.54V20.5699C191.54 13.1194 186.786 9.99561 180.923 9.99561H136.643C136.643 9.99561 135.321 17.4266 136.358 27.1166Z" fill="white"/>
<path opacity="0.1" d="M171.851 23.0276C169.706 23.0276 164.205 22.5283 164.338 27.3686C164.481 32.1422 164.452 37.1061 164.452 41.9511C164.452 43.0732 164.462 44.181 164.462 45.2936C164.495 50.4524 168.988 49.9104 171.023 49.9531C176.158 50.0482 183.414 49.9864 191.026 49.9008C191.197 49.9008 191.368 49.8961 191.54 49.8961V22.9562H191.026C183.709 22.923 179.534 23.0276 171.851 23.0276Z" fill="white"/>
<path opacity="0.1" d="M190.009 142.935H183.781C174.119 142.935 166.046 142.954 165.571 142.954C162.651 143.006 160.165 143.163 157.621 143.235C157.026 143.249 156.893 143.477 156.903 144.851C156.917 145.902 156.931 146.653 156.936 147.547C156.941 147.866 156.941 148.198 156.941 148.574C156.946 149.687 157.031 149.929 157.393 149.948C158.206 149.948 170.454 149.948 183.871 149.929C191.569 149.92 199.642 149.896 206.175 149.863V142.935H190.009Z" fill="white"/>
<path opacity="0.15" d="M157.391 149.949C157.03 149.93 156.944 149.687 156.939 148.574C156.939 148.199 156.939 147.866 156.935 147.547C156.93 146.654 156.916 145.902 156.901 144.852C156.892 143.477 157.025 143.249 157.619 143.235C160.163 143.164 162.65 143.007 165.569 142.954C166.045 142.954 174.118 142.935 183.779 142.935H206.174V140.824C205.912 140.824 205.698 140.61 205.698 140.349V132.39C205.698 129.651 203.473 127.426 200.734 127.426H59.4834C56.7447 127.426 54.5195 129.651 54.5195 132.39V152.492C54.5195 155.231 56.7447 157.456 59.4834 157.456H200.734C203.473 157.456 205.698 155.231 205.698 152.492V151.732C205.698 151.47 205.912 151.256 206.174 151.256V149.863C199.641 149.896 191.568 149.92 183.87 149.93C170.452 149.949 158.204 149.949 157.391 149.949ZM70.2351 138.031C68.7683 138.153 66.2217 138.071 64.8666 137.99C64.7297 137.98 64.6954 137.823 64.6888 137.111C64.6812 136.201 64.6683 135.638 64.656 134.727C64.6436 133.847 64.6935 133.709 64.9199 133.707C65.885 133.696 66.8298 133.638 67.9414 133.646C68.3974 133.651 69.1391 133.683 69.5951 133.688C69.8105 133.696 70.0967 133.674 70.2584 133.741C70.4077 133.798 70.4158 134.095 70.4205 134.59C70.4281 135.341 70.4362 136.28 70.4395 137.22C70.4409 137.873 70.3706 138.019 70.2351 138.03V138.031ZM82.5192 138.031C81.0524 138.153 78.5058 138.071 77.1507 137.99C77.0138 137.98 76.9795 137.823 76.9729 137.111C76.9653 136.201 76.9524 135.638 76.9401 134.727C76.9277 133.847 76.9776 133.709 77.204 133.707C78.1692 133.696 79.1139 133.638 80.2255 133.646C80.6815 133.651 81.4237 133.683 81.8792 133.688C82.0946 133.696 82.3808 133.674 82.5425 133.741C82.6918 133.798 82.6999 134.095 82.7046 134.59C82.7127 135.341 82.7203 136.28 82.7236 137.22C82.7251 137.873 82.6542 138.019 82.5192 138.03V138.031ZM94.8028 138.031C93.336 138.153 90.7894 138.071 89.4344 137.99C89.2974 137.98 89.2632 137.823 89.2565 137.111C89.2484 136.201 89.2361 135.638 89.2237 134.727C89.2114 133.847 89.2613 133.709 89.4876 133.707C90.4528 133.696 91.3975 133.638 92.5092 133.646C92.9652 133.651 93.7074 133.683 94.1628 133.688C94.3782 133.696 94.6645 133.674 94.8261 133.741C94.9754 133.798 94.9835 134.095 94.9878 134.59C94.9954 135.341 95.0035 136.28 95.0068 137.22C95.0082 137.873 94.9374 138.019 94.8023 138.03L94.8028 138.031ZM107.086 138.031C105.62 138.153 103.073 138.071 101.718 137.99C101.581 137.98 101.547 137.823 101.54 137.111C101.533 136.201 101.52 135.638 101.507 134.727C101.495 133.847 101.545 133.709 101.771 133.707C102.736 133.696 103.681 133.638 104.793 133.646C105.249 133.651 105.991 133.683 106.446 133.688C106.662 133.696 106.948 133.674 107.11 133.741C107.259 133.798 107.267 134.095 107.272 134.59C107.28 135.341 107.288 136.28 107.291 137.22C107.292 137.873 107.222 138.019 107.086 138.03V138.031Z" fill="#231F20"/>
<path opacity="0.25" d="M183.444 98.5698C186.544 91.0194 179.35 91.5567 179.35 91.5567C179.175 91.5567 178.99 91.5567 178.797 91.5567C178.411 91.5567 177.99 91.5567 177.537 91.5576C177.311 91.5576 177.077 91.5576 176.835 91.5581C176.352 91.5581 175.838 91.5591 175.297 91.5595C173.945 91.561 172.424 91.5633 170.784 91.5657C170.128 91.5667 169.452 91.5676 168.761 91.5686C165.995 91.5724 162.971 91.5771 159.891 91.5809C159.12 91.5819 158.347 91.5828 157.572 91.5838C155.637 91.5857 153.698 91.5876 151.805 91.5885C151.048 91.5885 150.298 91.5895 149.559 91.5895C148.82 91.5895 148.091 91.5895 147.376 91.5895C146.991 91.5895 146.61 91.5895 146.234 91.5895C145.482 91.5895 144.746 91.5895 144.032 91.5895C143.318 91.5895 142.625 91.5885 141.958 91.5876C141.291 91.5866 140.65 91.5852 140.039 91.5838C139.734 91.5828 139.436 91.5819 139.145 91.5805C138.844 91.5805 138.55 91.5805 138.265 91.5805C137.412 91.58 136.639 91.5786 135.963 91.5757C135.512 91.5738 135.104 91.5714 134.744 91.5686C134.383 91.5652 134.071 91.5614 133.81 91.5567C132.379 91.54 131.192 91.6175 130.194 91.802C129.695 91.8943 129.242 92.0131 128.83 92.1605C128.418 92.3079 128.045 92.4834 127.705 92.6892C127.365 92.8951 127.058 93.1305 126.777 93.3977C126.495 93.6649 126.24 93.9635 126.003 94.2954C125.765 94.6272 125.547 94.9919 125.341 95.3918C125.134 95.7916 124.939 96.2257 124.748 96.6965C124.745 96.7055 124.739 96.7226 124.729 96.7473C124.701 96.8225 124.645 96.9679 124.564 97.1771C124.51 97.3165 124.445 97.4838 124.37 97.6773C124.332 97.7739 124.292 97.877 124.25 97.9864C124.208 98.0958 124.163 98.2108 124.116 98.3321C123.848 99.0162 123.204 100.665 122.367 102.808C122.247 103.114 122.124 103.43 121.997 103.756C121.933 103.918 121.869 104.083 121.804 104.25C121.674 104.583 121.54 104.924 121.404 105.273C121.201 105.795 120.991 106.332 120.777 106.88C120.635 107.245 120.491 107.615 120.345 107.988C120.272 108.174 120.199 108.362 120.126 108.55C119.686 109.678 119.237 110.829 118.794 111.967C118.72 112.157 118.646 112.346 118.573 112.535C118.433 112.891 118.294 113.245 118.157 113.596C118.02 113.948 117.884 114.296 117.749 114.64C117.682 114.812 117.615 114.982 117.548 115.152C117.416 115.492 117.285 115.826 117.157 116.155C117.092 116.319 117.029 116.482 116.966 116.643C116.777 117.127 116.594 117.596 116.418 118.046C115.186 121.197 114.312 123.437 114.312 123.437C114.1 123.991 113.908 124.49 113.742 124.921C113.464 125.641 113.255 126.175 113.133 126.475H172.675L175.623 118.839L183.445 98.5703L183.444 98.5698ZM139.172 106.589C139.171 106.871 139.151 106.934 139.113 106.943C139.04 106.954 138.795 106.967 138.44 106.977C138.228 106.982 137.975 106.987 137.697 106.991C137 107 136.138 107.007 135.317 107.009C133.884 107.015 132.577 107.015 132.49 107.015C132.452 107.009 132.443 106.943 132.442 106.637C132.442 106.534 132.442 106.443 132.442 106.355C132.442 106.11 132.44 105.903 132.439 105.615C132.438 105.237 132.452 105.174 132.515 105.171C132.787 105.151 133.052 105.108 133.364 105.094C133.415 105.094 134.276 105.088 135.308 105.088H138.577C138.79 105.088 138.924 105.085 138.943 105.085C139.004 105.085 139.085 105.07 139.13 105.099C139.172 105.117 139.173 105.246 139.174 105.457C139.174 105.782 139.174 106.188 139.173 106.589L139.172 106.589ZM149.766 101.688C149.765 101.97 149.712 102.033 149.614 102.042C149.429 102.053 148.797 102.065 147.884 102.076C147.338 102.081 146.688 102.086 145.972 102.09C144.178 102.099 141.96 102.106 139.846 102.108C136.161 102.113 132.796 102.113 132.573 102.113C132.474 102.108 132.45 102.042 132.449 101.736C132.449 101.633 132.449 101.541 132.448 101.454C132.446 101.209 132.442 101.002 132.439 100.714C132.436 100.336 132.472 100.273 132.636 100.27C133.335 100.25 134.018 100.207 134.819 100.193C134.95 100.193 137.168 100.187 139.821 100.187H148.235C148.784 100.187 149.129 100.184 149.177 100.184C149.334 100.184 149.54 100.169 149.656 100.198C149.763 100.216 149.766 100.345 149.768 100.556C149.77 100.881 149.77 101.287 149.766 101.688V101.688Z" fill="white"/>
<path opacity="0.2" d="M101.074 123.436L104.797 123.427L105.948 123.432L105.943 122.794C106.181 122.794 106.418 122.785 106.666 122.756C107.198 122.718 107.759 122.609 108.339 122.447C111.026 121.677 112.994 118.639 113.664 115.22C113.669 115.163 113.688 115.111 113.693 115.059C113.788 114.55 113.85 114.032 113.888 113.513C113.888 113.485 113.888 113.452 113.893 113.433C113.926 112.976 113.95 112.505 113.954 111.997C113.954 111.997 115.381 113.941 116.983 112.929C117.245 112.762 117.449 112.501 117.601 112.158C118.628 109.857 117.382 103.995 115.59 100.429C113.541 96.3301 107.759 96.0448 105.7 104.251C105.7 104.251 105.61 104.261 105.425 104.275C105.31 104.28 105.173 104.289 105.001 104.304C104.098 104.389 102.334 104.622 99.9995 105.297C99.3814 105.478 98.7205 105.682 98.0263 105.925C95.0214 106.98 91.3365 108.692 87.3807 111.474C86.3822 112.182 84.2616 113.846 81.5467 114.055L80.4531 126.475H95.7536V123.436H101.074Z" fill="white"/>
<path opacity="0.45" d="M114.31 123.437H101.074L95.7626 123.441L95.7578 126.475H113.131C113.253 126.175 113.462 125.64 113.74 124.921C113.907 124.489 114.098 123.991 114.31 123.437Z" fill="white"/>
<path opacity="0.25" d="M114.312 123.437C114.1 123.991 113.909 124.489 113.742 124.921C113.909 124.489 114.1 123.991 114.312 123.437Z" fill="white"/>
<path opacity="0.45" d="M114.312 123.437C114.1 123.991 113.909 124.489 113.742 124.921C113.909 124.489 114.1 123.991 114.312 123.437Z" fill="white"/>
<path opacity="0.45" d="M116.983 112.928C115.381 113.941 113.955 111.997 113.955 111.997C113.95 112.505 113.926 112.976 113.893 113.432C113.888 113.452 113.888 113.485 113.888 113.513C113.85 114.032 113.788 114.55 113.693 115.059C113.688 115.111 113.669 115.163 113.665 115.22C112.994 118.639 111.026 121.677 108.339 122.447C107.759 122.609 107.198 122.718 106.666 122.756C106.418 122.785 106.181 122.794 105.943 122.794L105.948 123.432L104.797 123.427L101.074 123.436H114.311C114.311 123.436 115.186 121.196 116.417 118.045C116.593 117.595 116.776 117.126 116.965 116.642C117.028 116.481 117.092 116.319 117.156 116.154C117.284 115.826 117.415 115.491 117.548 115.151C117.614 114.982 117.681 114.811 117.748 114.639C117.883 114.295 118.019 113.946 118.156 113.596C118.294 113.244 118.432 112.89 118.572 112.534L117.602 112.158C117.45 112.501 117.245 112.762 116.983 112.928Z" fill="#231F20"/>
<path opacity="0.4" d="M101.074 123.437H95.7539V126.475H95.7587L95.7634 123.441L101.074 123.437Z" fill="white"/>
<path opacity="0.2" d="M98.452 49.9056C98.7183 49.9294 98.9798 49.9532 99.2413 49.9769H99.2461C99.4077 49.996 99.5599 50.0055 99.7168 50.0197C99.8261 50.0245 99.9355 50.034 100.045 50.0387L100.064 49.9722L102.665 40.3916C103.868 40.2347 105.128 39.9969 106.468 39.6498C108.793 39.0508 110.7 38.0475 112.226 36.7495C112.735 36.3168 113.201 35.8509 113.624 35.3564C114.47 34.3674 115.155 33.2643 115.678 32.0804C116.068 31.1913 116.372 30.2547 116.591 29.2895C116.734 28.6476 116.843 27.9867 116.914 27.321C116.948 26.9882 116.976 26.6506 116.99 26.313C117.043 25.2956 117.014 24.259 116.905 23.2225C116.724 21.4966 116.325 19.7516 115.726 18.0685C115.488 17.3933 115.217 16.7277 114.913 16.0715C114.613 15.4201 114.28 14.7783 113.914 14.1554C113.553 13.5278 113.158 12.924 112.735 12.3344C112.783 12.691 112.797 12.9144 112.797 12.9144C112.716 14.2315 112.069 14.7307 111.114 14.7022C110.89 14.6974 110.652 14.6594 110.4 14.6023C109.816 14.4645 109.155 14.1887 108.456 13.8321C108.156 13.6752 107.847 13.504 107.538 13.3233C107.329 13.1997 107.12 13.0714 106.911 12.9382C106.492 12.672 106.074 12.3914 105.655 12.0966C104.904 11.5736 104.167 11.0173 103.482 10.4801C103.273 10.3137 103.074 10.152 102.874 9.99509C102.836 9.96656 102.803 9.93804 102.765 9.90475C102.175 9.42929 101.638 8.9776 101.195 8.59723C100.863 8.31195 100.582 8.06471 100.363 7.86976C100.04 7.57973 99.8499 7.40381 99.8499 7.40381C99.8594 7.83173 99.8547 8.24538 99.8499 8.65428C99.8356 9.11548 99.8166 9.55766 99.7833 9.99509C99.7358 10.7273 99.6645 11.4262 99.5646 12.0966C99.2556 14.241 98.7183 16.0906 98.0241 17.6786C97.7483 18.3157 97.4488 18.9101 97.1302 19.4664C96.8069 20.0226 96.4693 20.5409 96.1175 21.0259C95.4091 21.9911 94.6483 22.8136 93.8685 23.5126C90.1789 26.8361 86.1375 27.3876 86.1375 27.3876C86.0614 27.2592 85.9711 27.1404 85.876 27.0167C85.8379 26.9597 85.7999 26.8979 85.7619 26.8408C85.7191 26.779 85.681 26.7172 85.6383 26.6649H85.6287C84.9583 25.8281 84.1786 25.2813 83.3845 24.9294C82.9281 24.7298 82.4717 24.5919 82.0247 24.5015C81.6919 24.435 81.3686 24.3969 81.0548 24.3732C80.8503 24.3589 80.6506 24.3541 80.4604 24.3541C80.2893 24.3541 80.1276 24.3541 79.9755 24.3684C79.0911 24.4635 78.2923 24.6965 77.5934 25.034C76.1955 25.7187 75.1828 26.8503 74.6265 28.2767C74.4838 28.6381 74.3745 29.0137 74.2889 29.4036C74.2081 29.7935 74.1558 30.2024 74.132 30.6255C73.9846 33.1788 75.3444 35.2661 77.3889 36.3406C78.1354 36.7305 78.9675 36.9872 79.8566 37.0823C80.0753 37.1061 80.3035 37.1204 80.527 37.1204C81.2022 37.0823 81.8345 36.992 82.4336 36.8256C83.0327 36.6639 83.5985 36.4309 84.1358 36.1076C84.3165 35.9983 84.4924 35.8794 84.6635 35.751C84.8395 35.6227 85.0106 35.4848 85.1771 35.3326C85.2436 35.2661 85.3149 35.1947 85.3863 35.1282C85.5527 35.2993 85.7333 35.48 85.9283 35.6654C86.1232 35.8509 86.3277 36.0363 86.5464 36.2217L83.2181 48.9452C83.2181 48.9452 83.3608 48.9547 83.627 48.9737C83.8933 48.9927 84.2832 49.0165 84.7729 49.0545C88.4673 49.2162 92.8606 49.4682 97.9148 49.8723C98.0954 49.8771 98.2761 49.8914 98.452 49.9056Z" fill="white"/>
<path opacity="0.15" d="M56.5764 157.639C55.2299 156.875 54.2109 155.599 53.7873 154.078C53.7027 153.774 53.6413 153.46 53.6066 153.139C52.8078 153.12 51.2483 153.196 51.1437 153.196H26.914C17.9515 153.196 6.00781 153.315 6.00781 155.744C6.00781 158.35 19.3589 158.293 19.3589 158.293H58.3327C58.0194 158.231 57.7151 158.143 57.4217 158.034C57.1284 157.924 56.8455 157.792 56.5764 157.639Z" fill="#231F20"/>
<path opacity="0.75" d="M205.701 151.731V152.492C205.701 155.231 203.475 157.456 200.737 157.456H59.4856C56.7469 157.456 54.5217 155.231 54.5217 152.492V132.389C54.5217 129.651 56.7469 127.426 59.4856 127.426H200.737C203.475 127.426 205.701 129.651 205.701 132.389V140.349C205.701 140.61 205.915 140.824 206.176 140.824C206.438 140.824 206.651 140.61 206.651 140.349V132.389C206.651 129.128 203.998 126.475 200.737 126.475H59.4856C59.1123 126.475 58.7486 126.51 58.3963 126.577C58.2199 126.611 58.0468 126.652 57.8761 126.701C57.7059 126.75 57.5385 126.806 57.3745 126.869C57.0968 126.975 56.8296 127.102 56.5733 127.247C55.5501 127.827 54.7157 128.704 54.1884 129.759C54.0567 130.023 53.944 130.298 53.8523 130.583C53.6692 131.152 53.5703 131.758 53.5703 132.388V152.491C53.5703 152.71 53.5846 152.924 53.6084 153.138C53.6435 153.459 53.7044 153.773 53.789 154.077C54.2131 155.598 55.2316 156.873 56.5781 157.638C56.8472 157.79 57.1296 157.923 57.423 158.033C57.7164 158.142 58.0207 158.229 58.334 158.292C58.7049 158.363 59.09 158.406 59.4846 158.406H200.736C203.997 158.406 206.651 155.753 206.651 152.491V151.73C206.651 151.469 206.437 151.255 206.175 151.255C205.914 151.255 205.7 151.469 205.7 151.73L205.701 151.731Z" fill="#231F20"/>
<path opacity="0.3" d="M87.3789 111.474C91.3348 108.692 95.0197 106.981 98.0246 105.925C98.7188 105.683 99.3797 105.478 99.9978 105.298C102.332 104.623 104.096 104.39 105 104.304C105.171 104.29 105.309 104.28 105.423 104.275C105.608 104.261 105.699 104.252 105.699 104.252C107.757 96.0451 113.539 96.3304 115.588 100.429C117.381 103.995 118.626 109.857 117.599 112.159L118.569 112.534C118.643 112.345 118.717 112.156 118.791 111.967C119.234 110.829 119.683 109.678 120.123 108.549C120.196 108.362 120.269 108.174 120.342 107.987C120.487 107.614 120.632 107.245 120.774 106.88C120.988 106.332 121.198 105.795 121.401 105.272C121.537 104.924 121.67 104.583 121.801 104.249C121.866 104.082 121.93 103.918 121.994 103.755C122.121 103.43 122.244 103.114 122.364 102.808C123.2 100.664 123.845 99.0163 124.113 98.3316C124.16 98.2104 124.205 98.0949 124.247 97.986C124.289 97.8766 124.329 97.7739 124.367 97.6769C124.442 97.4839 124.507 97.316 124.561 97.1767C124.642 96.9675 124.698 96.822 124.726 96.7469C124.736 96.7222 124.742 96.7046 124.745 96.696C124.935 96.2253 125.131 95.7907 125.338 95.3914C125.545 94.9915 125.763 94.6268 126 94.2949C126.236 93.9631 126.492 93.6645 126.774 93.3973C127.055 93.13 127.362 92.8947 127.702 92.6888C128.042 92.4834 128.414 92.3075 128.827 92.1601C129.239 92.0127 129.692 91.8938 130.191 91.8016C131.189 91.6171 132.376 91.5396 133.807 91.5563C134.067 91.561 134.38 91.5648 134.74 91.5681C135.101 91.5715 135.508 91.5739 135.96 91.5753C136.636 91.5781 137.409 91.5791 138.262 91.58C138.547 91.58 138.84 91.58 139.142 91.58C139.432 91.5815 139.73 91.5824 140.036 91.5834C140.647 91.5853 141.289 91.5867 141.955 91.5872C142.622 91.5876 143.315 91.5886 144.029 91.5891C144.743 91.5891 145.478 91.5891 146.231 91.5891C146.608 91.5891 146.988 91.5891 147.373 91.5891C147.273 90.0058 146.693 82.4173 145.081 75.1808C142.271 62.5001 131.673 53.4473 112.882 51.3124C110.572 51.0509 108.342 50.8084 106.207 50.604C106.178 50.5992 106.15 50.5945 106.117 50.5945C105.394 50.5232 104.681 50.4566 103.977 50.39C102.513 50.2569 101.091 50.1333 99.7168 50.0192C99.5599 50.0049 99.4077 49.9954 99.2461 49.9764H99.2413C98.7991 49.9431 98.3522 49.9051 97.9148 49.8718C92.8606 49.4676 88.4673 49.2156 84.7729 49.054C76.1052 48.6831 71.3648 48.8353 71.3648 48.8353C71.3648 48.8353 70.2284 48.7449 68.3741 48.821C68.1079 48.8353 67.8273 48.8495 67.5326 48.8638C67.2378 48.8828 66.9335 48.9066 66.6149 48.9351C66.2963 48.9636 65.9635 48.9922 65.6212 49.0302C64.2519 49.1824 62.7066 49.4248 61.0615 49.8052C60.2389 49.9906 59.3878 50.2141 58.5272 50.4804C57.8806 50.6801 57.2245 50.8988 56.5636 51.146C55.4653 51.5549 54.3527 52.0351 53.2496 52.5962C52.8074 52.8244 52.3652 53.0621 51.9278 53.3141C51.2717 53.6898 50.6203 54.0987 49.9736 54.5408C49.5457 54.8356 49.1226 55.1447 48.7041 55.4728C48.4664 55.6534 48.2287 55.8484 47.9957 56.0433C52.2273 57.7692 56.8964 60.4794 60.8333 64.7158L60.1391 65.3672C56.1689 61.0927 51.4286 58.4111 47.1969 56.7375C45.8704 57.9357 44.6151 59.305 43.4788 60.8835C42.0952 62.8092 40.8827 65.0439 39.9223 67.6256C39.5942 68.5195 39.2709 69.3991 38.9571 70.2787C38.1013 72.6656 37.3025 75.0239 36.5608 77.3061C36.3135 78.0668 36.071 78.8228 35.8333 79.5646C35.4197 80.8911 35.0203 82.1844 34.6446 83.4444C34.269 84.7043 33.9077 85.9263 33.5701 87.1102C32.6049 90.4717 31.8109 93.4909 31.1738 96.0061C29.9566 100.851 29.3289 103.851 29.3289 103.851C29.3289 103.851 28.4684 106.804 28.5349 110.593C28.5825 113.037 29.0246 115.843 30.3464 118.424C31.6254 120.93 33.7413 123.227 37.1313 124.796C40.0031 126.136 43.8116 126.949 48.804 126.916C51.9563 126.897 54.7996 126.883 57.3719 126.869C57.5359 126.805 57.7033 126.749 57.8735 126.701C58.0437 126.652 58.2172 126.61 58.3936 126.577C58.746 126.51 59.1097 126.474 59.4829 126.474H80.4509L81.5445 114.055C84.2594 113.846 86.38 112.182 87.3785 111.473L87.3789 111.474Z" fill="#231F20"/>
<path opacity="0.25" d="M144.031 91.5893C143.316 91.5893 142.624 91.5884 141.957 91.5874C142.624 91.5884 143.316 91.5888 144.031 91.5893Z" fill="white"/>
<path opacity="0.3" d="M144.031 91.5893C143.316 91.5893 142.624 91.5884 141.957 91.5874C142.624 91.5884 143.316 91.5888 144.031 91.5893Z" fill="#231F20"/>
<path opacity="0.25" d="M125.339 95.3916C125.132 95.7915 124.937 96.2256 124.746 96.6963C124.937 96.2256 125.132 95.791 125.339 95.3916Z" fill="white"/>
<path opacity="0.3" d="M125.339 95.3916C125.132 95.7915 124.937 96.2256 124.746 96.6963C124.937 96.2256 125.132 95.791 125.339 95.3916Z" fill="#231F20"/>
<path opacity="0.2" d="M60.1414 65.3678L60.8356 64.7164C56.8987 60.48 52.2296 57.7699 47.998 56.0439C47.727 56.2674 47.4607 56.5004 47.1992 56.7381C51.4309 58.4118 56.1712 61.0934 60.1414 65.3678Z" fill="white"/>
<path opacity="0.75" d="M33.5739 87.111C33.9115 85.9271 34.2728 84.7051 34.6485 83.4452C35.0241 82.1852 35.4235 80.8919 35.8371 79.5654C36.0749 78.8236 36.3173 78.0676 36.5646 77.3069C37.3063 75.0247 38.1051 72.6664 38.9609 70.2795C39.2747 69.3999 39.5981 68.5203 39.9261 67.6264C40.8866 65.0447 42.099 62.81 43.4826 60.8843C44.619 59.3058 45.8742 57.9365 47.2007 56.7383C41.0387 54.2992 35.9465 53.9901 35.8609 53.9853L35.9132 53.0344C35.9988 53.0392 41.4761 53.3768 47.9995 56.0441C48.2325 55.8492 48.4702 55.6542 48.708 55.4735C49.1264 55.1455 49.5495 54.8364 49.9775 54.5416C50.6241 54.0995 51.2755 53.6906 51.9316 53.3149C52.369 53.0629 52.8112 52.8252 53.2534 52.597C54.3565 52.0359 55.4691 51.5557 56.5674 51.1468C57.2283 50.8996 57.8844 50.6809 58.5311 50.4812C59.3917 50.2149 60.2427 49.9914 61.0653 49.806C62.7104 49.4256 64.2557 49.1832 65.625 49.031C65.9673 48.993 66.3002 48.9644 66.6187 48.9359C66.9373 48.9074 67.2416 48.8836 67.5364 48.8646C67.8312 48.8503 68.1117 48.8361 68.3779 48.8218C70.2323 48.7457 71.3686 48.8361 71.3686 48.8361C71.3686 48.8361 76.109 48.6839 84.7767 49.0548C84.287 49.0167 83.8971 48.993 83.6309 48.9739C83.3646 48.9549 83.222 48.9454 83.222 48.9454L86.5502 36.222C86.3315 36.0365 86.127 35.8511 85.9321 35.6657C85.7372 35.4803 85.5565 35.2996 85.3901 35.1284C85.3188 35.195 85.2474 35.2663 85.1809 35.3329C85.0145 35.485 84.8433 35.6229 84.6674 35.7513C84.4962 35.8796 84.3203 35.9985 84.1396 36.1079C83.6023 36.4312 83.0365 36.6642 82.4374 36.8258C81.8383 36.9922 81.206 37.0826 80.5308 37.1206C80.3074 37.1206 80.0791 37.1063 79.8604 37.0826C78.9713 36.9875 78.1392 36.7307 77.3928 36.3408C75.3483 35.2663 73.9884 33.179 74.1358 30.6258C74.1596 30.2026 74.2119 29.7937 74.2927 29.4038C74.3783 29.0139 74.4877 28.6383 74.6303 28.277C75.1866 26.8506 76.1993 25.719 77.5972 25.0343C78.2961 24.6967 79.0949 24.4637 79.9793 24.3686C80.1314 24.3544 80.2931 24.3544 80.4643 24.3544C80.6544 24.3544 80.8541 24.3591 81.0586 24.3734C81.3724 24.3972 81.6957 24.4352 82.0285 24.5018C82.4755 24.5921 82.9319 24.73 83.3884 24.9297C84.1824 25.2815 84.9622 25.8283 85.6326 26.6651H85.6421C85.6849 26.7174 85.7229 26.7792 85.7657 26.8411C85.8037 26.8981 85.8418 26.9599 85.8798 27.017C85.9749 27.1406 86.0652 27.2595 86.1413 27.3878C86.1413 27.3878 90.1828 26.8363 93.8724 23.5128C94.6521 22.8139 95.4129 21.9913 96.1213 21.0261C96.4732 20.5411 96.8107 20.0229 97.1341 19.4666C97.4526 18.9103 97.7522 18.316 98.0279 17.6788C98.7221 16.0908 99.2594 14.2412 99.5684 12.0969C99.6683 11.4265 99.7396 10.7275 99.7872 9.99533C99.8204 9.5579 99.8395 9.11572 99.8537 8.65452C99.8585 8.24562 99.8632 7.83196 99.8537 7.40405C99.8537 7.40405 100.044 7.57997 100.367 7.87C100.586 8.06494 100.866 8.31218 101.199 8.59746C101.641 8.97783 102.179 9.42953 102.768 9.90499C102.806 9.93827 102.84 9.9668 102.878 9.99533C103.077 10.1522 103.277 10.3139 103.486 10.4803C104.171 11.0176 104.908 11.5739 105.659 12.0969C106.078 12.3917 106.496 12.6722 106.914 12.9385C107.124 13.0716 107.333 13.2 107.542 13.3236C107.851 13.5043 108.16 13.6754 108.46 13.8323C109.159 14.1889 109.819 14.4647 110.404 14.6026C110.656 14.6596 110.894 14.6977 111.117 14.7024C112.073 14.731 112.72 14.2317 112.801 12.9147C112.801 12.9147 112.786 12.6912 112.739 12.3346C113.162 12.9242 113.557 13.528 113.918 14.1556C114.284 14.7785 114.617 15.4204 114.916 16.0718C115.221 16.7279 115.492 17.3936 115.729 18.0687C116.329 19.7519 116.728 21.4968 116.909 23.2228C117.018 24.2593 117.047 25.2958 116.994 26.3133C116.98 26.6509 116.951 26.9884 116.918 27.3213C116.847 27.9869 116.737 28.6478 116.595 29.2897C116.376 30.2549 116.072 31.1916 115.682 32.0807C115.159 33.2646 114.474 34.3677 113.628 35.3566C113.205 35.8511 112.739 36.3171 112.23 36.7497C110.704 38.0478 108.797 39.051 106.472 39.6501C105.131 39.9972 103.871 40.2349 102.668 40.3918L100.068 49.9724L100.049 50.039C99.9393 50.0342 99.8299 50.0247 99.7206 50.02C101.095 50.1341 102.516 50.2577 103.981 50.3908C104.684 50.4574 105.398 50.524 106.12 50.5953L106.22 50.543C123.646 41.3142 122.167 24.0834 120.955 17.9926C120.769 17.037 120.161 14.7405 118.753 12.0969C118.387 11.417 117.964 10.7085 117.484 9.99533C113.742 4.43714 106.272 -1.4919 91.7708 0.338636C85.9416 1.07085 80.4548 4.29926 76.8555 8.9398C76.5892 9.28213 76.342 9.63873 76.0995 9.99533C75.6335 10.68 75.2009 11.3789 74.7967 12.0969C72.4479 16.2667 70.9359 20.9691 68.0784 24.8203C62.9196 31.7574 54.0332 35.1237 45.413 35.718C34.387 36.4787 19.6095 36.8163 10.3047 43.2779C5.84004 46.3779 2.63541 50.8806 1.71301 57.5181C0.338915 67.4077 4.32807 74.611 10.3047 79.4322C17.1514 84.9619 26.5988 87.3677 33.5739 87.111Z" fill="#231F20"/>
<path opacity="0.1" d="M35.9117 53.0342L35.8594 53.9851C35.945 53.9899 41.0372 54.2989 47.1992 56.7381C47.4607 56.5003 47.727 56.2673 47.998 56.0439C41.4746 53.3765 35.9973 53.0389 35.9117 53.0342Z" fill="#231F20"/>
<path opacity="0.75" d="M68.0745 24.8201C70.9321 20.9688 72.4441 16.2665 74.7928 12.0967C75.197 11.3787 75.6297 10.6798 76.0956 9.99512H20.9084C13.9571 9.99512 10.3008 13.6419 10.3008 20.5695V43.2777C19.6056 36.8161 34.3831 36.4785 45.4091 35.7178C54.0293 35.1234 62.9157 31.7572 68.0745 24.8201Z" fill="white"/>
<path opacity="0.75" d="M53.8535 130.584C53.9452 130.299 54.0574 130.024 54.1896 129.76C54.7169 128.705 55.5514 127.828 56.5746 127.248C56.8304 127.103 57.098 126.976 57.3757 126.87C54.8035 126.884 51.9602 126.898 48.8078 126.917C43.8155 126.951 40.007 126.138 37.1352 124.797C33.7451 123.228 31.6293 120.931 30.3503 118.425C29.0285 115.844 28.5863 113.038 28.5388 110.595C28.4722 106.805 29.3328 103.852 29.3328 103.852C29.3328 103.852 29.9604 100.852 31.1776 96.0073C31.8147 93.4921 32.6087 90.4729 33.5739 87.1114C26.5989 87.3681 17.1514 84.9623 10.3047 79.4326V136.978C10.3047 145.075 15.0498 147.548 20.9123 147.548H53.572V132.39C53.572 131.76 53.6709 131.153 53.854 130.584L53.8535 130.584Z" fill="white"/>
<path opacity="0.7" d="M2.70971 86.1458C1.43547 86.1648 0.555857 86.8067 0.189749 87.7909C0.0851467 88.0666 0.0233362 88.3662 0.00431764 88.6895C-0.0812661 90.1825 1.11691 91.2808 2.58134 91.3046C3.29929 91.2618 3.91264 91.0668 4.44991 90.5866C4.95391 90.1302 5.20115 89.4788 5.2059 88.9035C5.21066 88.428 5.11557 87.9811 4.93489 87.5912C4.5355 86.7211 3.72245 86.1315 2.70971 86.1458Z" fill="white"/>
<path opacity="0.25" d="M149.655 100.198C149.539 100.169 149.333 100.184 149.176 100.184C149.127 100.184 148.783 100.188 148.234 100.188H139.82C137.167 100.188 134.949 100.193 134.818 100.193C134.017 100.207 133.333 100.25 132.635 100.27C132.472 100.274 132.435 100.336 132.438 100.714C132.441 101.002 132.445 101.209 132.447 101.454C132.448 101.542 132.448 101.633 132.448 101.736C132.449 102.042 132.473 102.108 132.572 102.114C132.796 102.114 136.16 102.114 139.845 102.108C141.959 102.106 144.177 102.099 145.971 102.09C146.687 102.087 147.337 102.081 147.883 102.076C148.796 102.066 149.428 102.053 149.613 102.042C149.711 102.033 149.764 101.971 149.765 101.689C149.769 101.288 149.769 100.882 149.767 100.557C149.765 100.346 149.762 100.217 149.655 100.198V100.198Z" fill="white"/>
<path opacity="0.5" d="M149.655 100.198C149.539 100.169 149.333 100.184 149.176 100.184C149.127 100.184 148.783 100.188 148.234 100.188H139.82C137.167 100.188 134.949 100.193 134.818 100.193C134.017 100.207 133.333 100.25 132.635 100.27C132.472 100.274 132.435 100.336 132.438 100.714C132.441 101.002 132.445 101.209 132.447 101.454C132.448 101.542 132.448 101.633 132.448 101.736C132.449 102.042 132.473 102.108 132.572 102.114C132.796 102.114 136.16 102.114 139.845 102.108C141.959 102.106 144.177 102.099 145.971 102.09C146.687 102.087 147.337 102.081 147.883 102.076C148.796 102.066 149.428 102.053 149.613 102.042C149.711 102.033 149.764 101.971 149.765 101.689C149.769 101.288 149.769 100.882 149.767 100.557C149.765 100.346 149.762 100.217 149.655 100.198V100.198Z" fill="white"/>
<path opacity="0.25" d="M139.129 105.099C139.084 105.07 139.003 105.085 138.942 105.085C138.923 105.085 138.79 105.088 138.576 105.088H135.306C134.275 105.088 133.414 105.094 133.363 105.094C133.051 105.108 132.786 105.151 132.514 105.171C132.451 105.174 132.437 105.237 132.438 105.615C132.439 105.903 132.44 106.11 132.441 106.355C132.441 106.443 132.441 106.534 132.441 106.637C132.442 106.943 132.451 107.009 132.489 107.015C132.576 107.015 133.883 107.015 135.316 107.009C136.137 107.007 136.999 107 137.696 106.991C137.974 106.987 138.227 106.982 138.439 106.977C138.794 106.967 139.04 106.954 139.112 106.943C139.15 106.934 139.17 106.871 139.171 106.589C139.172 106.189 139.172 105.783 139.172 105.457C139.171 105.247 139.17 105.118 139.128 105.099L139.129 105.099Z" fill="white"/>
<path opacity="0.5" d="M139.129 105.099C139.084 105.07 139.003 105.085 138.942 105.085C138.923 105.085 138.79 105.088 138.576 105.088H135.306C134.275 105.088 133.414 105.094 133.363 105.094C133.051 105.108 132.786 105.151 132.514 105.171C132.451 105.174 132.437 105.237 132.438 105.615C132.439 105.903 132.44 106.11 132.441 106.355C132.441 106.443 132.441 106.534 132.441 106.637C132.442 106.943 132.451 107.009 132.489 107.015C132.576 107.015 133.883 107.015 135.316 107.009C136.137 107.007 136.999 107 137.696 106.991C137.974 106.987 138.227 106.982 138.439 106.977C138.794 106.967 139.04 106.954 139.112 106.943C139.15 106.934 139.17 106.871 139.171 106.589C139.172 106.189 139.172 105.783 139.172 105.457C139.171 105.247 139.17 105.118 139.128 105.099L139.129 105.099Z" fill="white"/>
<path opacity="0.75" d="M174.516 79.1799L174.401 83.4249C174.125 83.4087 173.487 83.1068 173.166 82.9532C173.019 82.8867 172.879 82.8158 172.755 82.764L154.736 74.6858C153.553 74.1685 153.187 73.8847 153.083 73.7444L153.087 73.7425L162.294 67.1939L163.409 66.4009C163.066 66.2535 162.735 66.0994 162.402 65.9473L161.705 66.4422L152.531 72.9699C152.116 73.2723 152.09 73.6265 152.11 73.8119C152.184 74.4771 153.021 74.9744 154.349 75.554L172.368 83.6322C172.489 83.6854 172.623 83.7477 172.758 83.81C173.521 84.1742 174.309 84.5475 174.867 84.2821C174.888 84.2722 174.914 84.2598 174.938 84.2432C175.114 84.1381 175.327 83.9213 175.347 83.4753L175.445 79.8808L175.709 70.0829C175.388 70.022 175.08 69.9526 174.765 69.8879L174.517 79.179L174.516 79.1799Z" fill="white"/>
<path opacity="0.4" d="M174.516 79.1799L174.401 83.4249C174.125 83.4087 173.487 83.1068 173.166 82.9532C173.019 82.8867 172.879 82.8158 172.755 82.764L154.736 74.6858C153.553 74.1685 153.187 73.8847 153.083 73.7444L153.087 73.7425L162.294 67.1939L163.409 66.4009C163.066 66.2535 162.735 66.0994 162.402 65.9473L161.705 66.4422L152.531 72.9699C152.116 73.2723 152.09 73.6265 152.11 73.8119C152.184 74.4771 153.021 74.9744 154.349 75.554L172.368 83.6322C172.489 83.6854 172.623 83.7477 172.758 83.81C173.521 84.1742 174.309 84.5475 174.867 84.2821C174.888 84.2722 174.914 84.2598 174.938 84.2432C175.114 84.1381 175.327 83.9213 175.347 83.4753L175.445 79.8808L175.709 70.0829C175.388 70.022 175.08 69.9526 174.765 69.8879L174.517 79.179L174.516 79.1799Z" fill="white"/>
<path opacity="0.65" d="M176.03 57.866C175.989 57.4804 175.83 57.2241 175.56 57.11C175.058 56.8956 174.49 57.2393 173.042 58.38L162.398 65.947C162.732 66.0996 163.064 66.2537 163.405 66.4006L173.601 59.1459L173.62 59.1317C173.903 58.9077 174.666 58.3082 175.077 58.0871L174.761 69.8886C175.076 69.9528 175.384 70.0227 175.705 70.0835L176.032 57.9278L176.03 57.866H176.03Z" fill="white"/>
<path opacity="0.4" d="M176.03 57.866C175.989 57.4804 175.83 57.2241 175.56 57.11C175.058 56.8956 174.49 57.2393 173.042 58.38L162.398 65.947C162.732 66.0996 163.064 66.2537 163.405 66.4006L173.601 59.1459L173.62 59.1317C173.903 58.9077 174.666 58.3082 175.077 58.0871L174.761 69.8886C175.076 69.9528 175.384 70.0227 175.705 70.0835L176.032 57.9278L176.03 57.866H176.03Z" fill="white"/>
<path opacity="0.15" d="M70.2605 133.742C70.0984 133.674 69.8126 133.696 69.5972 133.689C69.1413 133.684 68.3991 133.651 67.9436 133.646C66.8319 133.638 65.8872 133.697 64.922 133.708C64.6957 133.709 64.6453 133.847 64.6581 134.728C64.6705 135.638 64.6833 136.201 64.6909 137.111C64.6971 137.824 64.7318 137.981 64.8687 137.99C66.2238 138.072 68.7704 138.154 70.2372 138.031C70.3722 138.02 70.4431 137.874 70.4417 137.221C70.4383 136.281 70.4307 135.343 70.4226 134.591C70.4179 134.096 70.4103 133.798 70.2605 133.742Z" fill="#231F20"/>
<path opacity="0.2" d="M70.2605 133.742C70.0984 133.674 69.8126 133.696 69.5972 133.689C69.1413 133.684 68.3991 133.651 67.9436 133.646C66.8319 133.638 65.8872 133.697 64.922 133.708C64.6957 133.709 64.6453 133.847 64.6581 134.728C64.6705 135.638 64.6833 136.201 64.6909 137.111C64.6971 137.824 64.7318 137.981 64.8687 137.99C66.2238 138.072 68.7704 138.154 70.2372 138.031C70.3722 138.02 70.4431 137.874 70.4417 137.221C70.4383 136.281 70.4307 135.343 70.4226 134.591C70.4179 134.096 70.4103 133.798 70.2605 133.742Z" fill="#231F20"/>
<path opacity="0.15" d="M82.5417 133.742C82.3796 133.674 82.0939 133.696 81.8785 133.689C81.4225 133.684 80.6808 133.651 80.2248 133.646C79.1132 133.638 78.1684 133.697 77.2032 133.708C76.9769 133.709 76.9265 133.847 76.9394 134.728C76.9517 135.638 76.9646 136.201 76.9722 137.111C76.9783 137.824 77.013 137.981 77.15 137.99C78.5051 138.072 81.0516 138.154 82.5185 138.031C82.6535 138.02 82.7243 137.874 82.7229 137.221C82.7196 136.281 82.712 135.343 82.7039 134.591C82.6991 134.096 82.6915 133.798 82.5417 133.742Z" fill="#231F20"/>
<path opacity="0.2" d="M82.5417 133.742C82.3796 133.674 82.0939 133.696 81.8785 133.689C81.4225 133.684 80.6808 133.651 80.2248 133.646C79.1132 133.638 78.1684 133.697 77.2032 133.708C76.9769 133.709 76.9265 133.847 76.9394 134.728C76.9517 135.638 76.9646 136.201 76.9722 137.111C76.9783 137.824 77.013 137.981 77.15 137.99C78.5051 138.072 81.0516 138.154 82.5185 138.031C82.6535 138.02 82.7243 137.874 82.7229 137.221C82.7196 136.281 82.712 135.343 82.7039 134.591C82.6991 134.096 82.6915 133.798 82.5417 133.742Z" fill="#231F20"/>
<path opacity="0.15" d="M94.8269 133.742C94.6648 133.674 94.379 133.696 94.1636 133.689C93.7077 133.684 92.9659 133.651 92.51 133.646C91.3983 133.638 90.4536 133.697 89.4884 133.708C89.2621 133.709 89.2117 133.847 89.2245 134.728C89.2369 135.638 89.2497 136.201 89.2573 137.111C89.2635 137.824 89.2982 137.981 89.4351 137.99C90.7902 138.072 93.3373 138.154 94.8036 138.031C94.9386 138.02 95.0095 137.874 95.0081 137.221C95.0047 136.281 94.9971 135.343 94.989 134.591C94.9843 134.096 94.9767 133.799 94.8274 133.742L94.8269 133.742Z" fill="#231F20"/>
<path opacity="0.2" d="M94.8269 133.742C94.6648 133.674 94.379 133.696 94.1636 133.689C93.7077 133.684 92.9659 133.651 92.51 133.646C91.3983 133.638 90.4536 133.697 89.4884 133.708C89.2621 133.709 89.2117 133.847 89.2245 134.728C89.2369 135.638 89.2497 136.201 89.2573 137.111C89.2635 137.824 89.2982 137.981 89.4351 137.99C90.7902 138.072 93.3373 138.154 94.8036 138.031C94.9386 138.02 95.0095 137.874 95.0081 137.221C95.0047 136.281 94.9971 135.343 94.989 134.591C94.9843 134.096 94.9767 133.799 94.8274 133.742L94.8269 133.742Z" fill="#231F20"/>
<path opacity="0.15" d="M107.112 133.742C106.95 133.674 106.664 133.696 106.449 133.689C105.993 133.684 105.251 133.651 104.795 133.646C103.683 133.638 102.739 133.697 101.774 133.708C101.547 133.709 101.497 133.847 101.51 134.728C101.522 135.638 101.535 136.201 101.542 137.111C101.549 137.824 101.583 137.981 101.72 137.99C103.075 138.072 105.622 138.154 107.089 138.031C107.224 138.02 107.295 137.874 107.293 137.221C107.29 136.281 107.282 135.343 107.274 134.591C107.269 134.096 107.262 133.798 107.112 133.742Z" fill="#231F20"/>
<path opacity="0.2" d="M107.112 133.742C106.95 133.674 106.664 133.696 106.449 133.689C105.993 133.684 105.251 133.651 104.795 133.646C103.683 133.638 102.739 133.697 101.774 133.708C101.547 133.709 101.497 133.847 101.51 134.728C101.522 135.638 101.535 136.201 101.542 137.111C101.549 137.824 101.583 137.981 101.72 137.99C103.075 138.072 105.622 138.154 107.089 138.031C107.224 138.02 107.295 137.874 107.293 137.221C107.29 136.281 107.282 135.343 107.274 134.591C107.269 134.096 107.262 133.798 107.112 133.742Z" fill="#231F20"/>
<path opacity="0.2" d="M94.9808 27.0717C97.2545 26.6828 98.7969 28.8172 98.8687 30.6629C98.9386 32.4597 97.8156 34.1604 95.4211 34.3383C93.1261 34.509 91.9193 33.113 91.4648 31.2282C91.0316 29.4329 92.2422 27.2757 94.9808 27.0717Z" fill="white"/>
<path d="M102.877 22.0951C102.995 21.5061 102.618 20.9334 102.033 20.816C101.449 20.6985 100.88 21.0808 100.761 21.6698C100.643 22.2588 101.02 22.8315 101.605 22.949C102.189 23.0664 102.758 22.6842 102.877 22.0951Z" fill="#181828" stroke="black" stroke-width="0.537276" stroke-miterlimit="10"/>
<path d="M112.619 20.8564C112.737 20.2673 112.36 19.6946 111.776 19.5772C111.191 19.4597 110.622 19.842 110.504 20.431C110.385 21.0201 110.763 21.5928 111.347 21.7102C111.931 21.8277 112.5 21.4454 112.619 20.8564Z" fill="#181828" stroke="black" stroke-width="0.537276" stroke-miterlimit="10"/>
<path d="M82.0201 32.032C81.7571 32.1062 81.5189 31.9436 81.3701 31.7002C80.6284 30.4891 79.6109 30.6546 79.5376 30.6537C79.2395 30.6499 78.9966 30.4007 78.9961 30.0964C78.9961 29.7916 79.2334 29.5558 79.5319 29.5468C79.869 29.5363 81.3168 29.4155 82.3106 31.2309C82.4993 31.5751 82.3514 31.9018 82.0743 32.0135C82.0562 32.0206 82.0381 32.0268 82.0196 32.032H82.0201Z" fill="#181828" stroke="black" stroke-width="0.537276" stroke-miterlimit="10"/>
<path d="M107.662 18.54C107.662 18.54 107.085 21.4233 108.431 23.3774C108.431 23.3774 109.968 22.833 110.77 24.0502C111.063 24.4967 111.154 25.6202 110.545 26.3248" stroke="black" stroke-width="1.07455" stroke-miterlimit="10" stroke-linecap="round"/>
<path d="M89.2773 37.3232C89.2773 37.3232 92.4877 39.4999 98.644 39.5032" stroke="black" stroke-width="1.07455" stroke-miterlimit="10" stroke-linecap="round"/>
<path d="M96.724 115.658C96.724 115.658 95.1616 123.191 87.5352 124.753" stroke="black" stroke-width="1.07455" stroke-linecap="round" stroke-linejoin="round"/>
<path d="M107.658 104.496C109.079 104.802 112.587 105.947 113.584 109.896C114.843 114.887 112.418 121.278 108.336 122.444C99.5144 124.964 95.7188 113.045 95.7188 113.045" stroke="black" stroke-width="1.07455" stroke-linecap="round" stroke-linejoin="round"/>
<path d="M100.195 106.492C100.195 106.492 104.114 116.847 106.632 122.491" stroke="black" stroke-width="1.07455" stroke-linecap="round" stroke-linejoin="round"/>
<path d="M106.027 105.839C106.027 105.839 109.106 114.888 110.132 121.418" stroke="black" stroke-width="1.07455" stroke-linecap="round" stroke-linejoin="round"/>
<path d="M109.945 101.408C109.945 101.408 110.971 104.067 111.578 106.446" stroke="black" stroke-width="1.07455" stroke-linecap="round" stroke-linejoin="round"/>
<path d="M103.867 29.3574C103.867 29.3574 105.832 31.6639 109.549 30.2118" stroke="black" stroke-width="1.07455" stroke-miterlimit="10" stroke-linecap="round"/>
<path d="M80.427 126.357L82.8115 97.5304L60.8555 96.9323L65.7252 80.1455" stroke="black" stroke-width="1.07455" stroke-linecap="round" stroke-linejoin="round"/>
<path d="M121.34 76.4297L123.887 95.7079" stroke="black" stroke-width="1.07455" stroke-linecap="round" stroke-linejoin="round"/>
</g>
<defs>
<clipPath id="clip0_3930_10854">
<rect width="220" height="158.407" fill="white"/>
</clipPath>
</defs>
</svg>
