<svg width="510" height="250" viewBox="0 0 510 250" fill="none" xmlns="http://www.w3.org/2000/svg">
<g id="Group 8539">
<g id="Group 8534">
<rect id="Rectangle 4324" width="510" height="250" rx="20.0704" fill="#EDF5FF"/>
</g>
<path id="Vector" d="M138.052 219.782C138.044 218.787 138.028 218.176 137.521 218.085C136.974 217.949 135.991 218.017 135.254 218.017C135.024 218.017 133.392 218.04 130.793 218.04L90.9562 218.04C78.3879 218.04 67.8879 218.063 67.2696 218.063C63.4736 218.131 60.2403 218.334 56.9359 218.425C56.1593 218.447 55.9849 218.742 56.001 220.529C56.0245 222.385 56.0486 223.516 56.0486 225.372C56.0566 226.82 56.1673 227.136 56.6348 227.159C57.6965 227.159 73.6248 227.159 91.0749 227.136C105.078 227.113 120.063 227.068 129.129 226.978C133.455 226.933 136.443 226.865 137.323 226.82C137.79 226.775 138.036 226.48 138.044 225.145C138.06 223.244 138.06 221.321 138.052 219.782Z" fill="#BDDBFF">
                                    <animate attributeName="d" values="M138.052 219.782C138.044 218.787 138.028 218.176 137.521 218.085C136.974 217.949 135.991 218.017 135.254 218.017C135.024 218.017 133.392 218.04 130.793 218.04L90.9562 218.04C78.3879 218.04 67.8879 218.063 67.2696 218.063C63.4736 218.131 60.2403 218.334 56.9359 218.425C56.1593 218.447 55.9849 218.742 56.001 220.529C56.0245 222.385 56.0486 223.516 56.0486 225.372C56.0566 226.82 56.1673 227.136 56.6348 227.159C57.6965 227.159 73.6248 227.159 91.0749 227.136C105.078 227.113 120.063 227.068 129.129 226.978C133.455 226.933 136.443 226.865 137.323 226.82C137.79 226.775 138.036 226.48 138.044 225.145C138.06 223.244 138.06 221.321 138.052 219.782Z;M210.052 219.782C210.044 218.787 210.028 218.176 209.521 218.085C208.974 217.949 207.991 218.017 207.254 218.017C207.024 218.017 205.392 218.04 202.793 218.04L162.956 218.04C150.388 218.04 139.888 218.063 139.27 218.063C135.474 218.131 132.24 218.334 128.936 218.425C128.159 218.447 127.985 218.742 128.001 220.529C128.024 222.385 128.049 223.516 128.049 225.372C128.057 226.82 128.167 227.136 128.635 227.159C129.696 227.159 145.625 227.159 163.075 227.136C177.078 227.113 192.063 227.068 201.129 226.978C205.455 226.933 208.443 226.865 209.323 226.82C209.79 226.775 210.036 226.48 210.044 225.145C210.06 223.244 210.06 221.321 210.052 219.782Z;M138.052 219.782C138.044 218.787 138.028 218.176 137.521 218.085C136.974 217.949 135.991 218.017 135.254 218.017C135.024 218.017 133.392 218.04 130.793 218.04L90.9562 218.04C78.3879 218.04 67.8879 218.063 67.2696 218.063C63.4736 218.131 60.2403 218.334 56.9359 218.425C56.1593 218.447 55.9849 218.742 56.001 220.529C56.0245 222.385 56.0486 223.516 56.0486 225.372C56.0566 226.82 56.1673 227.136 56.6348 227.159C57.6965 227.159 73.6248 227.159 91.0749 227.136C105.078 227.113 120.063 227.068 129.129 226.978C133.455 226.933 136.443 226.865 137.323 226.82C137.79 226.775 138.036 226.48 138.044 225.145C138.06 223.244 138.06 221.321 138.052 219.782Z" begin="0s" dur="6s" repeatCount="indefinite" fill="freeze" calcMode="linear" keyTimes="0;0.5;1"/></path>
<path id="Vector_2" d="M148.888 13L31.9421 13C29.3346 13 28.127 14.4852 28.127 16.3199L28.127 37.1436C28.127 38.9788 29.2158 40.4634 30.5613 40.4634L148.497 40.4634C150.844 40.4634 151.887 38.9782 151.887 37.1436L151.887 16.3199C151.887 14.4846 150.974 13 148.889 13L148.888 13Z" stroke="#BDDBFF" stroke-width="1.25" stroke-linecap="round" stroke-linejoin="round">
                                    <animate attributeName="d" values="M148.888 13L31.9421 13C29.3346 13 28.127 14.4852 28.127 16.3199L28.127 37.1436C28.127 38.9788 29.2158 40.4634 30.5613 40.4634L148.497 40.4634C150.844 40.4634 151.887 38.9782 151.887 37.1436L151.887 16.3199C151.887 14.4846 150.974 13 148.889 13L148.888 13Z;M100.207 13L30.2812 13C28.7221 13 28 14.4602 28 16.2638L28 36.7362C28 38.5404 28.6511 40 29.4556 40L99.9732 40C101.376 40 102 38.5398 102 36.7362L102 16.2638C102 14.4596 101.454 13 100.207 13L100.207 13Z;M148.888 13L31.9421 13C29.3346 13 28.127 14.4852 28.127 16.3199L28.127 37.1436C28.127 38.9788 29.2158 40.4634 30.5613 40.4634L148.497 40.4634C150.844 40.4634 151.887 38.9782 151.887 37.1436L151.887 16.3199C151.887 14.4846 150.974 13 148.889 13L148.888 13Z" begin="0s" dur="6s" repeatCount="indefinite" fill="freeze" calcMode="linear" keyTimes="0;0.5;1"/></path>
<g id="Group 8535">
<path id="Vector_3" d="M64.2993 48.3213C63.3273 46.2616 60.7897 45.6823 58.2934 45.6198C54.0164 45.5264 46.2612 45.6922 41.9638 45.6507C40.2553 45.6297 38.7305 45.6198 37.3083 45.6198C30.0948 45.5889 25.9816 45.6922 18.4101 45.6922C16.2923 45.6922 10.8695 45.1956 11.0024 50.0187C11.1459 54.7799 11.1149 59.7272 11.1149 64.5607C11.1149 65.6787 11.1254 66.7861 11.1254 67.8935C11.1564 73.0375 15.5867 72.4995 17.592 72.541C22.6568 72.6343 29.8085 72.5719 37.3083 72.489C43.8769 72.4167 50.712 72.3338 56.6363 72.3338C61.7728 72.3338 64.8626 71.9406 64.8626 66.2475C64.8626 65.8339 64.9035 65.4301 64.914 65.0158C65.1186 60.6275 65.1291 56.2076 64.9449 51.8193C64.9041 50.7322 64.7606 49.294 64.3006 48.3207L64.2993 48.3213Z" fill="#C1DDFF">
                                    <animate attributeName="d" values="M64.2993 48.3213C63.3273 46.2616 60.7897 45.6823 58.2934 45.6198C54.0164 45.5264 46.2612 45.6922 41.9638 45.6507C40.2553 45.6297 38.7305 45.6198 37.3083 45.6198C30.0948 45.5889 25.9816 45.6922 18.4101 45.6922C16.2923 45.6922 10.8695 45.1956 11.0024 50.0187C11.1459 54.7799 11.1149 59.7272 11.1149 64.5607C11.1149 65.6787 11.1254 66.7861 11.1254 67.8935C11.1564 73.0375 15.5867 72.4995 17.592 72.541C22.6568 72.6343 29.8085 72.5719 37.3083 72.489C43.8769 72.4167 50.712 72.3338 56.6363 72.3338C61.7728 72.3338 64.8626 71.9406 64.8626 66.2475C64.8626 65.8339 64.9035 65.4301 64.914 65.0158C65.1186 60.6275 65.1291 56.2076 64.9449 51.8193C64.9041 50.7322 64.7606 49.294 64.3006 48.3207L64.2993 48.3213Z;M64.6554 48.7308C64.224 46.6709 63.0978 46.0914 61.9899 46.029C60.0916 45.9356 56.6497 46.1013 54.7424 46.0599C53.9842 46.0389 53.3074 46.029 52.6762 46.029C49.4747 45.9981 47.6492 46.1013 44.2888 46.1013C43.3488 46.1013 40.9421 45.6048 41.0011 50.4284C41.0647 55.1901 41.051 60.1381 41.051 64.9722C41.051 66.0903 41.0557 67.1979 41.0557 68.3054C41.0694 73.45 43.0357 72.912 43.9257 72.9534C46.1736 73.0468 49.3476 72.9843 52.6762 72.9015C55.5915 72.8291 58.6251 72.7462 61.2544 72.7462C63.5341 72.7462 64.9054 72.3529 64.9054 66.6592C64.9054 66.2455 64.9236 65.8417 64.9282 65.4273C65.0191 61.0385 65.0237 56.6181 64.9419 52.2292C64.9238 51.142 64.8602 49.7036 64.656 48.7302L64.6554 48.7308Z;M64.2993 48.3213C63.3273 46.2616 60.7897 45.6823 58.2934 45.6198C54.0164 45.5264 46.2612 45.6922 41.9638 45.6507C40.2553 45.6297 38.7305 45.6198 37.3083 45.6198C30.0948 45.5889 25.9816 45.6922 18.4101 45.6922C16.2923 45.6922 10.8695 45.1956 11.0024 50.0187C11.1459 54.7799 11.1149 59.7272 11.1149 64.5607C11.1149 65.6787 11.1254 66.7861 11.1254 67.8935C11.1564 73.0375 15.5867 72.4995 17.592 72.541C22.6568 72.6343 29.8085 72.5719 37.3083 72.489C43.8769 72.4167 50.712 72.3338 56.6363 72.3338C61.7728 72.3338 64.8626 71.9406 64.8626 66.2475C64.8626 65.8339 64.9035 65.4301 64.914 65.0158C65.1186 60.6275 65.1291 56.2076 64.9449 51.8193C64.9041 50.7322 64.7606 49.294 64.3006 48.3207L64.2993 48.3213Z" begin="0s" dur="6s" repeatCount="indefinite" fill="freeze" calcMode="linear" keyTimes="0;0.5;1"/></path>
<path id="Vector_4" d="M53.2528 60.686C51.3916 61.8794 51.4441 64.8313 53.2089 66.0779C54.0653 66.6876 55.1746 66.9708 56.1973 66.7321C57.6825 66.3871 58.7925 64.8938 58.8184 63.3467C58.871 60.1029 55.0175 59.5637 53.2528 60.686Z" fill="#72B2FF">
                                    <animate attributeName="d" values="M53.2528 60.686C51.3916 61.8794 51.4441 64.8313 53.2089 66.0779C54.0653 66.6876 55.1746 66.9708 56.1973 66.7321C57.6825 66.3871 58.7925 64.8938 58.8184 63.3467C58.871 60.1029 55.0175 59.5637 53.2528 60.686Z;M53.2528 50.5337C51.3916 51.7271 51.4441 54.679 53.2089 55.9256C54.0653 56.5352 55.1746 56.8184 56.1973 56.5798C57.6825 56.2347 58.7925 54.7415 58.8184 53.1944C58.871 49.9506 55.0175 49.4114 53.2528 50.5337Z;M53.2528 60.686C51.3916 61.8794 51.4441 64.8313 53.2089 66.0779C54.0653 66.6876 55.1746 66.9708 56.1973 66.7321C57.6825 66.3871 58.7925 64.8938 58.8184 63.3467C58.871 60.1029 55.0175 59.5637 53.2528 60.686Z" begin="0s" dur="6s" repeatCount="indefinite" fill="freeze" calcMode="linear" keyTimes="0;0.5;1"/></path>
</g>
<g id="Group 8536">
<path id="Vector_5" d="M473.177 197.324C473.177 196.349 473.172 195.775 473.027 195.677C472.869 195.558 472.588 195.623 472.378 195.634C471.93 195.656 471.206 195.667 470.756 195.688C470.507 195.709 468.15 195.667 467.701 195.688C467.443 195.71 467.193 195.732 466.95 195.765C466.692 195.797 466.442 195.829 466.196 195.873C465.98 195.906 465.768 195.938 465.557 195.97C465.285 196.014 465.013 196.046 464.741 196.079C464.52 196.1 464.471 196.382 464.475 198.104C464.482 199.881 464.488 200.986 464.488 202.773C464.49 203.358 464.495 203.737 464.511 203.998C464.535 204.355 464.577 204.474 464.655 204.474C464.983 204.486 465.382 204.486 465.817 204.474C466.056 204.474 466.305 204.474 466.561 204.463C466.913 204.45 467.276 204.431 467.636 204.404C467.656 204.448 467.68 204.474 467.711 204.474C468.039 204.485 472.082 204.311 472.968 204.084C473.104 204.04 473.173 203.748 473.177 202.47C473.18 200.639 473.18 198.797 473.179 197.324L473.177 197.324Z" fill="#BDDBFF">
                                    <animate attributeName="d" values="M473.177 197.324C473.177 196.349 473.172 195.775 473.027 195.677C472.869 195.558 472.588 195.623 472.378 195.634C471.93 195.656 471.206 195.667 470.756 195.688C470.507 195.709 468.15 195.667 467.701 195.688C467.443 195.71 467.193 195.732 466.95 195.765C466.692 195.797 466.442 195.829 466.196 195.873C465.98 195.906 465.768 195.938 465.557 195.97C465.285 196.014 465.013 196.046 464.741 196.079C464.52 196.1 464.471 196.382 464.475 198.104C464.482 199.881 464.488 200.986 464.488 202.773C464.49 203.358 464.495 203.737 464.511 203.998C464.535 204.355 464.577 204.474 464.655 204.474C464.983 204.486 465.382 204.486 465.817 204.474C466.056 204.474 466.305 204.474 466.561 204.463C466.913 204.45 467.276 204.431 467.636 204.404C467.656 204.448 467.68 204.474 467.711 204.474C468.039 204.485 472.082 204.311 472.968 204.084C473.104 204.04 473.173 203.748 473.177 202.47C473.18 200.639 473.18 198.797 473.179 197.324L473.177 197.324Z;M473.177 217.718C473.177 216.742 473.172 216.169 473.027 216.071C472.869 215.952 472.588 216.016 472.378 216.028C471.93 216.049 471.206 216.06 470.756 216.082C470.507 216.103 468.15 216.06 467.701 216.082C467.443 216.104 467.193 216.125 466.95 216.158C466.692 216.191 466.442 216.223 466.196 216.266C465.98 216.299 465.768 216.331 465.557 216.364C465.285 216.407 465.013 216.44 464.741 216.472C464.52 216.494 464.471 216.775 464.475 218.498C464.482 220.274 464.488 221.379 464.488 223.167C464.49 223.752 464.495 224.131 464.511 224.391C464.535 224.749 464.577 224.868 464.655 224.868C464.983 224.879 465.382 224.879 465.817 224.868C466.056 224.868 466.305 224.868 466.561 224.857C466.913 224.844 467.276 224.824 467.636 224.797C467.656 224.841 467.68 224.867 467.711 224.867C468.039 224.878 472.082 224.705 472.968 224.477C473.104 224.434 473.173 224.141 473.177 222.863C473.18 221.032 473.18 219.191 473.179 217.718L473.177 217.718Z;M473.177 197.324C473.177 196.349 473.172 195.775 473.027 195.677C472.869 195.558 472.588 195.623 472.378 195.634C471.93 195.656 471.206 195.667 470.756 195.688C470.507 195.709 468.15 195.667 467.701 195.688C467.443 195.71 467.193 195.732 466.95 195.765C466.692 195.797 466.442 195.829 466.196 195.873C465.98 195.906 465.768 195.938 465.557 195.97C465.285 196.014 465.013 196.046 464.741 196.079C464.52 196.1 464.471 196.382 464.475 198.104C464.482 199.881 464.488 200.986 464.488 202.773C464.49 203.358 464.495 203.737 464.511 203.998C464.535 204.355 464.577 204.474 464.655 204.474C464.983 204.486 465.382 204.486 465.817 204.474C466.056 204.474 466.305 204.474 466.561 204.463C466.913 204.45 467.276 204.431 467.636 204.404C467.656 204.448 467.68 204.474 467.711 204.474C468.039 204.485 472.082 204.311 472.968 204.084C473.104 204.04 473.173 203.748 473.177 202.47C473.18 200.639 473.18 198.797 473.179 197.324L473.177 197.324Z" begin="0s" dur="6s" repeatCount="indefinite" fill="freeze" calcMode="linear" keyTimes="0;0.5;1"/></path>
<path id="Vector_6" d="M482.062 189.057C481.509 189.09 480.252 189.09 478.66 189.09C474.089 189.078 466.625 188.992 464.155 189.057C460.093 189.176 458.424 188.244 458.424 193.151C458.424 197.853 458.142 220.439 458.078 224.881C458.045 227.741 457.243 230.806 461.63 230.709C466.603 230.589 476.764 230.557 481.866 230.557C486.968 230.557 487.142 229.214 487.142 226.213C487.142 223.646 487.163 206.931 487.185 198.502C487.185 196.314 487.196 194.668 487.196 193.996C487.218 188.84 486.048 188.873 482.062 189.057Z" stroke="#BDDBFF" stroke-width="1.25" stroke-linecap="round" stroke-linejoin="round"/>
</g>
<g id="Group 8537">
<path id="Vector_7" d="M484.282 77.2965L476.378 67.9739L460.129 48.8326C458.972 47.497 457.237 44.9217 456.397 46.4916L439.294 79.982L434.405 89.539C433.964 90.7781 434.998 90.7924 438.908 89.9106L444.678 88.9052L477.3 83.2041L485.797 81.7306C487.725 81.359 485.563 78.7836 484.282 77.2965Z" fill="#BDDBFF">
                                    <animate attributeName="d" values="M484.282 77.2965L476.378 67.9739L460.129 48.8326C458.972 47.497 457.237 44.9217 456.397 46.4916L439.294 79.982L434.405 89.539C433.964 90.7781 434.998 90.7924 438.908 89.9106L444.678 88.9052L477.3 83.2041L485.797 81.7306C487.725 81.359 485.563 78.7836 484.282 77.2965Z;M469.545 44.4462L460.198 52.3214L441.007 68.5112C439.667 69.6639 437.087 71.391 438.654 72.2355L472.091 89.4427L481.633 94.3609C482.871 94.8056 482.888 93.7725 482.018 89.8594L481.031 84.0866L475.431 51.4462L473.984 42.9451C473.619 41.016 471.036 43.1697 469.545 44.4462Z;M484.282 77.2965L476.378 67.9739L460.129 48.8326C458.972 47.497 457.237 44.9217 456.397 46.4916L439.294 79.982L434.405 89.539C433.964 90.7781 434.998 90.7924 438.908 89.9106L444.678 88.9052L477.3 83.2041L485.797 81.7306C487.725 81.359 485.563 78.7836 484.282 77.2965Z" begin="0s" dur="6s" repeatCount="indefinite" fill="freeze" calcMode="linear" keyTimes="0;0.5;1"/></path>
</g>
<path id="Vector_8" d="M397.546 11.003C377.358 11.2614 363.911 22.2879 359.538 38.6368C359.166 40.0292 358.861 41.4665 358.625 42.9372C358.354 44.5768 358.163 46.2498 358.061 47.9789C357.677 54.7838 359.12 61.0157 361.961 66.3941C367.901 77.6904 379.95 85.1459 393.882 85.9319C394.468 85.9654 395.066 85.988 395.674 85.9994C406.213 85.3703 415.107 82.5746 422.963 75.5118C430.324 68.8979 433.931 59.477 433.998 51.0892C434.179 28.823 419.008 10.7332 397.546 11.003Z" fill="#E5F1FF">
                                    <animate attributeName="d" values="M397.546 11.003C377.358 11.2614 363.911 22.2879 359.538 38.6368C359.166 40.0292 358.861 41.4665 358.625 42.9372C358.354 44.5768 358.163 46.2498 358.061 47.9789C357.677 54.7838 359.12 61.0157 361.961 66.3941C367.901 77.6904 379.95 85.1459 393.882 85.9319C394.468 85.9654 395.066 85.988 395.674 85.9994C406.213 85.3703 415.107 82.5746 422.963 75.5118C430.324 68.8979 433.931 59.477 433.998 51.0892C434.179 28.823 419.008 10.7332 397.546 11.003Z;M397.058 23.002C383.245 23.1778 374.045 30.6759 371.052 41.7931C370.798 42.74 370.589 43.7174 370.427 44.7175C370.242 45.8324 370.111 46.9701 370.042 48.1459C369.779 52.7732 370.766 57.0109 372.71 60.6683C376.774 68.3498 385.019 73.4196 394.551 73.9541C394.952 73.9769 395.361 73.9923 395.777 74C402.988 73.5722 409.073 71.6711 414.449 66.8684C419.485 62.3709 421.953 55.9646 421.999 50.2609C422.123 35.1198 411.742 22.8186 397.058 23.002Z;M397.546 11.003C377.358 11.2614 363.911 22.2879 359.538 38.6368C359.166 40.0292 358.861 41.4665 358.625 42.9372C358.354 44.5768 358.163 46.2498 358.061 47.9789C357.677 54.7838 359.12 61.0157 361.961 66.3941C367.901 77.6904 379.95 85.1459 393.882 85.9319C394.468 85.9654 395.066 85.988 395.674 85.9994C406.213 85.3703 415.107 82.5746 422.963 75.5118C430.324 68.8979 433.931 59.477 433.998 51.0892C434.179 28.823 419.008 10.7332 397.546 11.003Z" begin="0s" dur="6s" repeatCount="indefinite" fill="freeze" calcMode="linear" keyTimes="0;0.5;1"/></path>
<path id="Vector_9" d="M425 56.6465C425 56.6465 443.998 57.6463 456.997 71.6455" stroke="#72B2FF" stroke-width="1.25" stroke-miterlimit="10"/>

                                    </g>
</svg>