<svg width="681" height="343" viewBox="0 0 681 343" fill="none" xmlns="http://www.w3.org/2000/svg">
<g id="Preview with no interactions" clip-path="url(#clip0_1094_908)">
<path id="Vector" d="M456.053 108.911C459.567 108.867 462.051 111.841 462.024 115.504C462.013 116.881 461.424 118.429 460.217 119.519C458.928 120.681 457.474 121.138 455.744 121.243C455.645 121.237 455.546 121.237 455.452 121.232C453.166 121.1 451.194 119.877 450.219 118.015C449.756 117.134 449.519 116.109 449.58 114.991C449.597 114.705 449.63 114.429 449.674 114.159C449.713 113.917 449.762 113.68 449.823 113.454C450.539 110.766 452.742 108.949 456.053 108.911Z" fill="#DCE4FF"/>
<path id="Vector_2" d="M504.309 180.06C504.711 180.036 505.048 179.928 505.348 179.659C505.627 179.406 505.765 179.046 505.769 178.726C505.776 177.876 505.199 177.182 504.382 177.193C503.474 177.205 502.924 177.791 502.879 178.606C502.831 179.437 503.496 180.048 504.31 180.06L504.309 180.06Z" fill="#EC4F04">
                                    <animate attributeName="d" values="M504.309 180.06C504.711 180.036 505.048 179.928 505.348 179.659C505.627 179.406 505.765 179.046 505.769 178.726C505.776 177.876 505.199 177.182 504.382 177.193C503.474 177.205 502.924 177.791 502.879 178.606C502.831 179.437 503.496 180.048 504.31 180.06L504.309 180.06Z;M508.432 173.866C508.834 173.842 509.171 173.735 509.471 173.466C509.75 173.213 509.888 172.852 509.892 172.532C509.899 171.682 509.322 170.989 508.505 171C507.597 171.012 507.047 171.598 507.002 172.413C506.954 173.244 507.619 173.854 508.433 173.866L508.432 173.866Z;M504.309 180.06C504.711 180.036 505.048 179.928 505.348 179.659C505.627 179.406 505.765 179.046 505.769 178.726C505.776 177.876 505.199 177.182 504.382 177.193C503.474 177.205 502.924 177.791 502.879 178.606C502.831 179.437 503.496 180.048 504.31 180.06L504.309 180.06Z" begin="0s" dur="6s" repeatCount="indefinite" fill="freeze" calcMode="linear" keyTimes="0;0.5;1"/></path>
<path id="Vector_3" d="M164.371 236.708C165.012 236.669 165.551 236.499 166.03 236.07C166.476 235.666 166.696 235.091 166.701 234.579C166.712 233.223 165.791 232.117 164.487 232.134C163.037 232.153 162.16 233.088 162.088 234.39C162.011 235.716 163.073 236.69 164.371 236.709L164.371 236.708Z" fill="#FFD3C7">
                                    <animate attributeName="d" values="M164.371 236.708C165.012 236.669 165.551 236.499 166.03 236.07C166.476 235.666 166.696 235.091 166.701 234.579C166.712 233.223 165.791 232.117 164.487 232.134C163.037 232.153 162.16 233.088 162.088 234.39C162.011 235.716 163.073 236.69 164.371 236.709L164.371 236.708Z;M156.287 244.574C156.928 244.535 157.467 244.365 157.946 243.936C158.392 243.532 158.612 242.957 158.617 242.445C158.628 241.089 157.707 239.983 156.403 240C154.953 240.019 154.076 240.954 154.004 242.256C153.927 243.582 154.989 244.556 156.287 244.575L156.287 244.574Z;M164.371 236.708C165.012 236.669 165.551 236.499 166.03 236.07C166.476 235.666 166.696 235.091 166.701 234.579C166.712 233.223 165.791 232.117 164.487 232.134C163.037 232.153 162.16 233.088 162.088 234.39C162.011 235.716 163.073 236.69 164.371 236.709L164.371 236.708Z" begin="0s" dur="6s" repeatCount="indefinite" fill="freeze" calcMode="linear" keyTimes="0;0.5;1"/></path>
<path id="Vector_4" d="M474.621 84.25H213.119C201.755 84.25 195.785 88.91 195.785 97.76V246.49C195.785 256.84 203.54 260 213.119 260H474.621C486.139 260 491.968 253.95 491.968 246.49V97.76C491.968 88.24 484.2 84.25 474.621 84.25Z" fill="#D8DDC0"/>
<path id="Vector_5" d="M474.838 84.25L416.209 84.25C416.209 84.25 414.383 92.37 415.816 102.96C416.551 108.42 418.162 114.53 421.331 120.53C429.699 136.36 448.959 151.39 491.967 151.42L491.967 97.76C491.967 88.24 484.296 84.25 474.837 84.25L474.838 84.25Z" fill="#EBEFD3">
                                    <animate attributeName="d" values="M474.838 84.25L416.209 84.25C416.209 84.25 414.383 92.37 415.816 102.96C416.551 108.42 418.162 114.53 421.331 120.53C429.699 136.36 448.959 151.39 491.967 151.42L491.967 97.76C491.967 88.24 484.296 84.25 474.837 84.25L474.838 84.25Z;M477.931 84L429.774 84C429.774 84 428.274 90.6488 429.451 99.3201C430.055 103.791 431.378 108.794 433.981 113.707C440.854 126.669 456.674 138.975 492 139L492 95.0622C492 87.2671 485.699 84 477.93 84L477.931 84Z;M474.838 84.25L416.209 84.25C416.209 84.25 414.383 92.37 415.816 102.96C416.551 108.42 418.162 114.53 421.331 120.53C429.699 136.36 448.959 151.39 491.967 151.42L491.967 97.76C491.967 88.24 484.296 84.25 474.837 84.25L474.838 84.25Z" begin="0s" dur="6s" repeatCount="indefinite" fill="freeze" calcMode="linear" keyTimes="0;0.5;1"/></path>
<path id="Vector_6" d="M333.211 84.25C333.281 84.35 333.361 84.46 333.431 84.56C333.421 84.46 333.401 84.36 333.391 84.25H333.211Z" fill="#EC4F04"/>
<path id="Vector_7" d="M204.285 96.7618C213.567 96.6958 222.735 96.6078 231.616 96.4608C235.793 96.3868 239.559 96.5788 243.611 96.3728C246.907 96.2108 247.079 94.6298 247.113 93.8068C247.124 93.3218 247.147 87.2778 247.09 82.8438C247.079 81.6528 247.056 80.5718 247.033 79.7478C246.999 78.4828 247.159 77.3878 245.763 76.3288C244.195 75.1298 240.91 75.1228 237.271 75.1298C234.684 75.1448 200.36 75.3058 190.14 75.3868C168.245 75.5638 197.628 75.0338 175.733 75.3058C169.141 75.3868 166.153 75.3428 166.096 79.6658C166.027 84.3718 166.176 88.2758 166.176 92.9748C166.176 96.5778 168.625 96.7028 174.657 96.7028C179.109 96.7028 191.184 96.7538 195.739 96.7768C215.734 96.8728 183.947 96.8948 204.285 96.7618Z" stroke="#EC4F04" stroke-width="1.104" stroke-miterlimit="10">
                                    <animate attributeName="d" values="M204.285 96.7618C213.567 96.6958 222.735 96.6078 231.616 96.4608C235.793 96.3868 239.559 96.5788 243.611 96.3728C246.907 96.2108 247.079 94.6298 247.113 93.8068C247.124 93.3218 247.147 87.2778 247.09 82.8438C247.079 81.6528 247.056 80.5718 247.033 79.7478C246.999 78.4828 247.159 77.3878 245.763 76.3288C244.195 75.1298 240.91 75.1228 237.271 75.1298C234.684 75.1448 200.36 75.3058 190.14 75.3868C168.245 75.5638 197.628 75.0338 175.733 75.3058C169.141 75.3868 166.153 75.3428 166.096 79.6658C166.027 84.3718 166.176 88.2758 166.176 92.9748C166.176 96.5778 168.625 96.7028 174.657 96.7028C179.109 96.7028 191.184 96.7538 195.739 96.7768C215.734 96.8728 183.947 96.8948 204.285 96.7618Z;M209.37 96.9054C219.906 96.8386 230.312 96.7495 240.393 96.6006C245.135 96.5257 249.409 96.7201 254.009 96.5115C257.75 96.3475 257.946 94.7466 257.984 93.9132C257.997 93.4221 258.023 87.3019 257.958 82.8121C257.946 81.6061 257.919 80.5114 257.893 79.6771C257.855 78.3961 258.036 77.2873 256.452 76.215C254.672 75.0009 250.943 74.9938 246.812 75.0009C243.876 75.0161 204.914 75.1791 193.313 75.2611C168.46 75.4403 201.813 74.9037 176.96 75.1791C169.477 75.2611 166.085 75.2166 166.021 79.594C165.942 84.3593 166.112 88.3125 166.112 93.0707C166.112 96.7191 168.891 96.8457 175.738 96.8457C180.792 96.8457 194.498 96.8973 199.669 96.9206C222.365 97.0178 186.284 97.0401 209.37 96.9054Z;M204.285 96.7618C213.567 96.6958 222.735 96.6078 231.616 96.4608C235.793 96.3868 239.559 96.5788 243.611 96.3728C246.907 96.2108 247.079 94.6298 247.113 93.8068C247.124 93.3218 247.147 87.2778 247.09 82.8438C247.079 81.6528 247.056 80.5718 247.033 79.7478C246.999 78.4828 247.159 77.3878 245.763 76.3288C244.195 75.1298 240.91 75.1228 237.271 75.1298C234.684 75.1448 200.36 75.3058 190.14 75.3868C168.245 75.5638 197.628 75.0338 175.733 75.3058C169.141 75.3868 166.153 75.3428 166.096 79.6658C166.027 84.3718 166.176 88.2758 166.176 92.9748C166.176 96.5778 168.625 96.7028 174.657 96.7028C179.109 96.7028 191.184 96.7538 195.739 96.7768C215.734 96.8728 183.947 96.8948 204.285 96.7618Z" begin="0s" dur="6s" repeatCount="indefinite" fill="freeze" calcMode="linear" keyTimes="0;0.5;1"/></path>
<path id="Vector_8" d="M344.091 91.9001C343.851 90.6601 343.061 87.6801 341.231 84.2501C337.071 76.4501 327.451 66.3101 306.221 68.9901C298.661 69.9401 291.541 74.1301 286.871 80.1501C285.871 81.4501 285.001 82.8301 284.201 84.2501C281.151 89.6601 279.191 95.7601 275.481 100.76C268.791 109.76 257.271 114.36 246.071 114.9C233.361 115.51 209.901 113.11 207.921 113.03C207.071 113 206.181 112.99 205.261 113C192.331 113.16 172.771 118.05 169.341 141.12C169.211 141.98 169.011 144.01 169.201 146.71C169.471 150.61 170.561 155.93 173.881 161.23C176.021 164.65 179.081 168.05 183.431 171.08C186.651 173.31 190.571 175.34 195.351 177C198.311 178.04 201.601 178.93 205.261 179.65C208.681 180.32 212.431 180.83 216.521 181.17C220.851 181.52 225.571 181.67 230.711 181.58C231.591 178.51 232.571 175.23 233.651 171.79C234.871 167.93 236.221 163.87 237.701 159.74C238.111 158.6 238.531 157.46 238.951 156.3C248.931 129.48 279.751 131.92 279.751 131.92C279.751 131.92 285.901 131.72 297.151 132.2C295.871 132.11 295.131 132.06 295.131 132.06L299.451 115.55C298.881 115.07 298.381 114.58 297.941 114.13L297.671 114.4C295.931 115.96 293.971 116.58 291.641 116.72C286.921 116.65 283.061 113.11 283.341 108.29C283.581 103.91 286.331 100.68 290.921 100.17C291.121 100.15 291.331 100.15 291.551 100.15C293.531 100.15 296.271 100.67 298.261 103.15H298.271C298.381 103.29 298.481 103.46 298.581 103.61C298.701 103.77 298.821 103.92 298.921 104.09C298.921 104.09 313.781 102.05 316.341 84.2501C316.611 82.4001 316.751 80.3701 316.711 78.1601C316.711 78.1601 320.351 81.5301 324.241 84.2501C328.581 87.2901 333.241 89.5201 333.511 85.3101C333.511 85.3101 333.491 85.0201 333.431 84.5601C333.361 84.4601 333.281 84.3501 333.211 84.2501H333.391C333.401 84.3601 333.421 84.4601 333.431 84.5601C342.191 96.7301 341.371 115.86 325.301 120C323.561 120.45 321.921 120.76 320.361 120.96L316.991 133.39C316.991 133.39 316.987 133.39 316.985 133.39L316.961 133.48C316.041 133.44 315.141 133.301 314.201 133.261C317.536 133.528 321.087 133.835 324.843 134.2L324.971 134.131C347.581 122.161 345.661 99.8001 344.091 91.9001Z" fill="#181828"/>
<path id="Vector_9" d="M378.371 187.39C378.241 185.34 377.491 175.49 375.401 166.1C371.751 149.65 358.001 137.9 333.621 135.13C330.621 134.79 327.731 134.48 324.961 134.21C324.921 134.206 324.883 134.203 324.843 134.199C321.087 133.834 317.536 133.527 314.201 133.26C307.641 132.74 301.941 132.41 297.151 132.2C285.901 131.72 279.751 131.92 279.751 131.92C279.751 131.92 248.931 129.48 238.951 156.3C238.531 157.46 238.111 158.6 237.701 159.74C236.221 163.87 234.871 167.93 233.651 171.79C232.571 175.23 231.591 178.51 230.711 181.58C229.461 185.94 228.431 189.86 227.601 193.12C226.021 199.41 225.211 203.3 225.211 203.3C225.211 203.3 224.091 207.13 224.181 212.05C224.241 215.22 224.811 218.86 226.531 222.21C228.191 225.46 230.931 228.44 235.331 230.48C239.061 232.22 244.001 233.27 250.481 233.23C284.621 233.01 291.501 233.23 291.501 233.23L291.511 233.1L291.521 232.98L291.531 232.79L292.961 216.54C296.481 216.27 299.231 214.11 300.531 213.19C305.661 209.58 310.441 207.36 314.341 205.99C315.241 205.68 316.101 205.41 316.901 205.18C319.931 204.3 322.221 204 323.391 203.89C323.611 203.87 323.791 203.86 323.941 203.85L324.301 203.82C326.971 193.17 334.471 193.54 337.131 198.86C339.801 204.18 341.541 213.44 338.941 215.08C336.861 216.39 335.011 213.87 335.011 213.87C335.001 214.53 334.971 215.14 334.931 215.73C334.921 215.76 334.921 215.8 334.921 215.84C334.871 216.51 334.791 217.18 334.671 217.84C334.661 217.91 334.641 217.98 334.631 218.05C333.761 222.49 331.211 226.43 327.721 227.43C326.971 227.64 326.241 227.78 325.551 227.83C325.231 227.87 324.921 227.88 324.611 227.88L324.618 228.709L323.126 228.704L311.405 228.72L311.395 233.041L381.731 232.791L378.401 187.781C378.401 187.781 378.391 187.641 378.371 187.391V187.39Z" fill="#5E6834"/>
<path id="Vector_10" d="M323.127 228.704L324.619 228.709L324.612 227.88C324.922 227.88 325.232 227.87 325.552 227.83C326.242 227.78 326.972 227.64 327.722 227.43C331.212 226.43 333.762 222.49 334.632 218.05C334.642 217.98 334.662 217.91 334.672 217.84C334.792 217.18 334.872 216.51 334.922 215.84C334.922 215.8 334.922 215.76 334.932 215.73C334.972 215.14 335.002 214.53 335.012 213.87C335.012 213.87 336.862 216.39 338.942 215.08C341.542 213.44 339.802 204.18 337.132 198.86C334.472 193.54 326.972 193.17 324.302 203.82L323.942 203.85C323.792 203.86 323.612 203.87 323.392 203.89C322.222 204 319.932 204.3 316.902 205.18C316.102 205.41 315.242 205.68 314.342 205.99C310.442 207.36 305.662 209.58 300.532 213.19C299.232 214.11 296.482 216.27 292.962 216.54L291.532 232.79L291.522 232.98L291.512 233.1C293.932 233.17 296.922 233.24 300.442 233.24C303.622 233.24 311.396 233.044 311.396 233.044V233.041L311.406 228.72L323.127 228.704Z" fill="#EC4F04"/>
<path id="Vector_11" d="M316.984 133.39L320.36 120.96C321.92 120.76 323.56 120.45 325.3 120C341.37 115.86 342.191 96.7302 333.431 84.5602C333.491 85.0202 333.51 85.3102 333.51 85.3102C333.24 89.5202 328.58 87.2902 324.24 84.2502C320.35 81.5302 316.71 78.1602 316.71 78.1602C316.75 80.3702 316.611 82.4002 316.341 84.2502C313.781 102.05 298.92 104.09 298.92 104.09C298.82 103.92 298.7 103.77 298.58 103.61C298.48 103.46 298.38 103.29 298.27 103.15H298.26C296.27 100.67 293.53 100.15 291.55 100.15C291.33 100.15 291.12 100.15 290.92 100.17C286.33 100.68 283.581 103.91 283.341 108.29C283.061 113.11 286.92 116.65 291.64 116.72C293.97 116.58 295.93 115.96 297.67 114.4L297.941 114.13C298.381 114.58 298.88 115.07 299.45 115.55L295.131 132.06C295.131 132.06 295.871 132.11 297.151 132.2C301.941 132.41 307.64 132.74 314.2 133.26C315.14 133.3 316.04 133.439 316.96 133.479L316.984 133.39Z" fill="#EC4F04"/>
<path id="Vector_12" d="M419.861 187.35C412.581 187.35 393.221 187.39 378.371 187.39C374.381 187.39 370.701 187.39 367.691 187.38C364.561 187.38 362.121 187.37 360.771 187.35C353.341 187.26 350.991 189.13 349.011 194.02C348.981 194.11 348.681 194.88 348.191 196.14C346.651 200.09 335.471 228.71 335.471 228.71C334.681 230.77 334.111 232.24 333.891 232.79C333.831 232.94 333.791 233.04 333.791 233.04H411.051L415.021 222.75L425.171 196.45C429.191 186.65 419.861 187.35 419.861 187.35Z" fill="#181828"/>
<path id="Vector_13" d="M324.611 228.71H311.391V233.04C311.331 233.04 333.791 233.04 333.791 233.04C333.791 233.04 333.831 232.94 333.891 232.79C334.111 232.24 334.681 230.77 335.471 228.71H324.611Z" fill="#5F7CFF"/>
<path id="Vector_14" d="M447.608 233.274L264.33 233.274C260.434 233.274 257.275 236.433 257.275 240.329L257.275 266.414C257.275 270.311 260.434 273.469 264.33 273.469L447.608 273.469C451.505 273.469 454.663 270.311 454.663 266.414L454.663 240.329C454.663 236.433 451.505 233.274 447.608 233.274Z" fill="white">
                                    <animate attributeName="d" values="M447.608 233.274L264.33 233.274C260.434 233.274 257.275 236.433 257.275 240.329L257.275 266.414C257.275 270.311 260.434 273.469 264.33 273.469L447.608 273.469C451.505 273.469 454.663 270.311 454.663 266.414L454.663 240.329C454.663 236.433 451.505 233.274 447.608 233.274Z;M442.53 233L248.47 233C244.344 233 241 236.143 241 240.021L241 265.979C241 269.857 244.344 273 248.47 273L442.53 273C446.656 273 450 269.857 450 265.979L450 240.021C450 236.143 446.656 233 442.53 233Z;M447.608 233.274L264.33 233.274C260.434 233.274 257.275 236.433 257.275 240.329L257.275 266.414C257.275 270.311 260.434 273.469 264.33 273.469L447.608 273.469C451.505 273.469 454.663 270.311 454.663 266.414L454.663 240.329C454.663 236.433 451.505 233.274 447.608 233.274Z" begin="0s" dur="6s" repeatCount="indefinite" fill="freeze" calcMode="linear" keyTimes="0;0.5;1"/></path>
<path id="Vector_15" d="M170.03 204.688L174.737 212.766L184.417 229.354C185.11 230.515 186.073 232.686 186.915 231.616L204.272 208.678L209.231 202.133C209.728 201.258 208.952 201.11 205.889 201.251L201.409 201.237L176.077 201.172L169.481 201.146C167.979 201.168 169.264 203.397 170.03 204.688Z" fill="#5F7CFF">
                                    <animate attributeName="d" values="M170.03 204.688L174.737 212.766L184.417 229.354C185.11 230.515 186.073 232.686 186.915 231.616L204.272 208.678L209.231 202.133C209.728 201.258 208.952 201.11 205.889 201.251L201.409 201.237L176.077 201.172L169.481 201.146C167.979 201.168 169.264 203.397 170.03 204.688Z;M179.365 196.312L178.998 205.654L178.256 224.845C178.218 226.197 177.864 228.545 179.149 228.095L206.109 218.065L213.807 215.207C214.696 214.735 214.12 214.194 211.461 212.668L207.689 210.251L186.354 196.593L180.804 193.029C179.525 192.241 179.412 194.811 179.365 196.312Z;M170.03 204.688L174.737 212.766L184.417 229.354C185.11 230.515 186.073 232.686 186.915 231.616L204.272 208.678L209.231 202.133C209.728 201.258 208.952 201.11 205.889 201.251L201.409 201.237L176.077 201.172L169.481 201.146C167.979 201.168 169.264 203.397 170.03 204.688Z" begin="0s" dur="6s" repeatCount="indefinite" fill="freeze" calcMode="linear" keyTimes="0;0.5;1"/></path>
<path id="Vector_16" d="M383.982 121.569C374.554 121.724 366.744 124.531 360.663 128.063C358.937 129.079 357.335 130.189 355.9 131.38L338.047 116.277C337.69 116.199 348.905 139.934 348.905 139.934C347.184 143.236 346.19 146.863 345.989 150.718C345.972 150.995 345.954 151.284 345.937 151.573C345.872 154.956 346.591 158.097 347.96 160.962C350.883 167.074 358.893 178.009 384.515 177.578C415.941 177.049 422.274 159.716 423.008 150.368C423.703 141.517 418.755 120.998 383.982 121.569Z" fill="white"/>
<path id="Vector_17" d="M362.711 137.578V138.219H361.065V143.615H360.277V138.219H358.623V137.578H362.711Z" fill="black"/>
<path id="Vector_18" d="M367.006 139.011C367.295 139.164 367.522 139.394 367.686 139.699C367.851 140.005 367.933 140.378 367.933 140.816V143.613H367.154V140.928C367.154 140.454 367.035 140.092 366.799 139.841C366.563 139.59 366.239 139.464 365.829 139.464C365.413 139.464 365.083 139.594 364.838 139.854C364.592 140.114 364.47 140.493 364.47 140.989V143.613H363.682V137.205H364.47V139.543C364.625 139.301 364.841 139.113 365.115 138.981C365.389 138.848 365.697 138.782 366.038 138.782C366.395 138.782 366.719 138.858 367.008 139.011H367.006Z" fill="black"/>
<path id="Vector_19" d="M373.527 141.536H369.734C369.763 142.004 369.923 142.369 370.214 142.632C370.506 142.895 370.86 143.026 371.275 143.026C371.616 143.026 371.9 142.947 372.129 142.788C372.357 142.63 372.517 142.417 372.609 142.151H373.458C373.331 142.607 373.077 142.978 372.696 143.264C372.315 143.549 371.842 143.693 371.275 143.693C370.825 143.693 370.422 143.591 370.067 143.389C369.713 143.188 369.434 142.9 369.232 142.528C369.03 142.156 368.928 141.724 368.928 141.233C368.928 140.742 369.027 140.313 369.223 139.943C369.419 139.574 369.695 139.29 370.05 139.09C370.404 138.891 370.813 138.791 371.275 138.791C371.726 138.791 372.124 138.889 372.47 139.085C372.816 139.281 373.083 139.552 373.271 139.895C373.459 140.239 373.553 140.627 373.553 141.06C373.553 141.21 373.544 141.369 373.527 141.537V141.536ZM372.54 140.12C372.407 139.903 372.227 139.739 371.999 139.626C371.77 139.514 371.519 139.458 371.241 139.458C370.843 139.458 370.504 139.585 370.223 139.839C369.942 140.093 369.783 140.444 369.743 140.896H372.739C372.739 140.595 372.673 140.337 372.54 140.121V140.12Z" fill="black"/>
<path id="Vector_20" d="M375.973 139.006C376.23 138.857 376.543 138.781 376.912 138.781V139.594H376.705C375.821 139.594 375.38 140.073 375.38 141.032V143.613H374.592V138.868H375.38V139.639C375.519 139.368 375.716 139.157 375.973 139.006Z" fill="black"/>
<path id="Vector_21" d="M382.124 141.536H378.331C378.36 142.004 378.52 142.369 378.811 142.632C379.103 142.895 379.457 143.026 379.872 143.026C380.213 143.026 380.497 142.947 380.726 142.788C380.954 142.63 381.114 142.417 381.206 142.151H382.055C381.928 142.607 381.674 142.978 381.293 143.264C380.912 143.549 380.439 143.693 379.872 143.693C379.422 143.693 379.019 143.591 378.664 143.389C378.31 143.188 378.031 142.9 377.829 142.528C377.627 142.156 377.525 141.724 377.525 141.233C377.525 140.742 377.624 140.313 377.82 139.943C378.016 139.574 378.292 139.29 378.647 139.09C379.001 138.891 379.41 138.791 379.872 138.791C380.323 138.791 380.721 138.889 381.067 139.085C381.413 139.281 381.68 139.552 381.868 139.895C382.056 140.239 382.15 140.627 382.15 141.06C382.15 141.21 382.141 141.369 382.124 141.537V141.536ZM381.136 140.12C381.003 139.903 380.823 139.739 380.595 139.626C380.366 139.514 380.115 139.458 379.837 139.458C379.439 139.458 379.1 139.585 378.819 139.839C378.538 140.093 378.379 140.444 378.339 140.896H381.335C381.335 140.595 381.269 140.337 381.136 140.121V140.12Z" fill="black"/>
<path id="Vector_22" d="M385.502 139.947C385.698 139.58 385.968 139.296 386.312 139.093C386.656 138.89 387.038 138.79 387.459 138.79C387.875 138.79 388.235 138.879 388.541 139.059C388.848 139.238 389.075 139.462 389.226 139.734V138.869H390.023V143.614H389.226V142.731C389.07 143.007 388.837 143.237 388.529 143.419C388.22 143.602 387.861 143.692 387.451 143.692C387.029 143.692 386.648 143.588 386.307 143.38C385.967 143.172 385.699 142.88 385.502 142.505C385.305 142.13 385.207 141.702 385.207 141.224C385.207 140.739 385.306 140.313 385.502 139.947ZM389.008 140.297C388.863 140.031 388.669 139.827 388.424 139.687C388.178 139.545 387.908 139.474 387.614 139.474C387.32 139.474 387.051 139.543 386.808 139.682C386.565 139.821 386.371 140.023 386.228 140.288C386.083 140.554 386.011 140.865 386.011 141.224C386.011 141.587 386.083 141.904 386.228 142.172C386.372 142.44 386.566 142.645 386.808 142.786C387.05 142.927 387.319 142.998 387.614 142.998C387.909 142.998 388.177 142.928 388.424 142.786C388.669 142.644 388.863 142.439 389.008 142.172C389.153 141.903 389.225 141.59 389.225 141.232C389.225 140.874 389.153 140.563 389.008 140.297Z" fill="black"/>
<path id="Vector_23" d="M392.736 139.006C392.993 138.857 393.306 138.781 393.675 138.781V139.594H393.468C392.584 139.594 392.143 140.073 392.143 141.032V143.613H391.355V138.868H392.143V139.639C392.282 139.368 392.479 139.157 392.736 139.006Z" fill="black"/>
<path id="Vector_24" d="M398.888 141.536H395.095C395.124 142.004 395.284 142.369 395.575 142.632C395.867 142.895 396.221 143.026 396.636 143.026C396.977 143.026 397.261 142.947 397.49 142.788C397.718 142.63 397.878 142.417 397.97 142.151H398.819C398.692 142.607 398.438 142.978 398.057 143.264C397.676 143.549 397.203 143.693 396.636 143.693C396.186 143.693 395.783 143.591 395.428 143.389C395.074 143.188 394.795 142.9 394.593 142.528C394.391 142.156 394.289 141.724 394.289 141.233C394.289 140.742 394.388 140.313 394.584 139.943C394.78 139.574 395.056 139.29 395.411 139.09C395.765 138.891 396.174 138.791 396.636 138.791C397.087 138.791 397.485 138.889 397.831 139.085C398.177 139.281 398.444 139.552 398.632 139.895C398.82 140.239 398.914 140.627 398.914 141.06C398.914 141.21 398.905 141.369 398.888 141.537V141.536ZM397.901 140.12C397.768 139.903 397.588 139.739 397.36 139.626C397.131 139.514 396.88 139.458 396.602 139.458C396.204 139.458 395.865 139.585 395.584 139.839C395.303 140.093 395.144 140.444 395.104 140.896H398.1C398.1 140.595 398.034 140.337 397.901 140.121V140.12Z" fill="black"/>
<path id="Vector_25" d="M405.982 139.305C406.34 139.655 406.519 140.159 406.519 140.817V143.614H405.74V140.929C405.74 140.455 405.621 140.093 405.385 139.842C405.149 139.591 404.825 139.465 404.415 139.465C403.999 139.465 403.669 139.595 403.424 139.855C403.178 140.115 403.056 140.494 403.056 140.99V143.614H402.268V138.869H403.056V139.544C403.211 139.302 403.424 139.114 403.693 138.982C403.961 138.849 404.256 138.783 404.58 138.783C405.158 138.783 405.625 138.958 405.983 139.306L405.982 139.305Z" fill="black"/>
<path id="Vector_26" d="M408.671 143.388C408.311 143.187 408.027 142.899 407.822 142.527C407.617 142.155 407.514 141.723 407.514 141.232C407.514 140.748 407.619 140.319 407.83 139.947C408.041 139.574 408.328 139.289 408.691 139.09C409.055 138.891 409.462 138.791 409.913 138.791C410.364 138.791 410.77 138.891 411.134 139.09C411.498 139.289 411.784 139.573 411.995 139.943C412.206 140.313 412.311 140.743 412.311 141.233C412.311 141.723 412.203 142.156 411.986 142.528C411.77 142.9 411.477 143.188 411.107 143.389C410.738 143.591 410.328 143.693 409.878 143.693C409.434 143.693 409.031 143.591 408.67 143.389L408.671 143.388ZM410.675 142.799C410.923 142.667 411.124 142.468 411.277 142.202C411.43 141.936 411.506 141.613 411.506 141.231C411.506 140.849 411.431 140.527 411.281 140.261C411.131 139.995 410.934 139.798 410.692 139.668C410.449 139.538 410.186 139.473 409.904 139.473C409.615 139.473 409.351 139.538 409.111 139.668C408.872 139.798 408.679 139.995 408.536 140.261C408.391 140.527 408.319 140.85 408.319 141.231C408.319 141.619 408.389 141.945 408.531 142.21C408.673 142.476 408.862 142.674 409.098 142.804C409.334 142.934 409.594 142.998 409.877 142.998C410.16 142.998 410.427 142.933 410.675 142.799Z" fill="black"/>
<path id="Vector_27" d="M360.489 148.334C360.385 148.23 360.334 148.103 360.334 147.953C360.334 147.803 360.386 147.676 360.489 147.571C360.593 147.467 360.72 147.416 360.871 147.416C361.015 147.416 361.138 147.468 361.238 147.571C361.34 147.675 361.39 147.802 361.39 147.953C361.39 148.102 361.339 148.229 361.238 148.334C361.137 148.438 361.014 148.489 360.871 148.489C360.721 148.489 360.594 148.437 360.489 148.334ZM361.252 149.26V154.005H360.464V149.26H361.252Z" fill="black"/>
<path id="Vector_28" d="M366.308 149.697C366.666 150.047 366.845 150.551 366.845 151.209V154.006H366.066V151.321C366.066 150.847 365.947 150.485 365.711 150.234C365.475 149.983 365.151 149.857 364.741 149.857C364.325 149.857 363.995 149.987 363.75 150.247C363.504 150.507 363.382 150.886 363.382 151.382V154.006H362.594V149.261H363.382V149.936C363.537 149.694 363.75 149.506 364.019 149.374C364.287 149.241 364.582 149.175 364.906 149.175C365.484 149.175 365.951 149.35 366.309 149.698L366.308 149.697Z" fill="black"/>
<path id="Vector_29" d="M369.095 149.91V152.707C369.095 152.937 369.144 153.101 369.242 153.196C369.34 153.291 369.511 153.339 369.753 153.339H370.333V154.006H369.623C369.185 154.006 368.855 153.905 368.636 153.703C368.417 153.501 368.307 153.169 368.307 152.707V149.91H367.693V149.261H368.307V148.066H369.095V149.261H370.333V149.91H369.095Z" fill="black"/>
<path id="Vector_30" d="M375.591 151.927H371.798C371.827 152.395 371.987 152.76 372.278 153.023C372.57 153.286 372.924 153.417 373.339 153.417C373.68 153.417 373.964 153.338 374.193 153.179C374.421 153.021 374.581 152.808 374.673 152.542H375.522C375.395 152.998 375.141 153.369 374.76 153.655C374.379 153.94 373.906 154.084 373.339 154.084C372.889 154.084 372.486 153.982 372.131 153.78C371.777 153.579 371.498 153.291 371.296 152.919C371.094 152.547 370.992 152.115 370.992 151.624C370.992 151.133 371.091 150.704 371.287 150.334C371.483 149.965 371.759 149.681 372.114 149.481C372.468 149.282 372.877 149.182 373.339 149.182C373.79 149.182 374.188 149.28 374.534 149.476C374.88 149.672 375.147 149.943 375.335 150.286C375.523 150.63 375.617 151.018 375.617 151.451C375.617 151.601 375.608 151.759 375.591 151.927ZM374.604 150.511C374.471 150.294 374.291 150.13 374.063 150.017C373.834 149.905 373.583 149.849 373.305 149.849C372.907 149.849 372.568 149.976 372.287 150.23C372.006 150.484 371.847 150.835 371.807 151.287H374.803C374.803 150.986 374.737 150.727 374.604 150.511Z" fill="black"/>
<path id="Vector_31" d="M378.037 149.398C378.294 149.249 378.607 149.173 378.976 149.173V149.986H378.769C377.885 149.986 377.444 150.465 377.444 151.424V154.005H376.656V149.26H377.444V150.031C377.583 149.76 377.78 149.549 378.037 149.398Z" fill="black"/>
<path id="Vector_32" d="M379.887 150.338C380.083 149.971 380.353 149.687 380.697 149.484C381.041 149.281 381.423 149.181 381.844 149.181C382.26 149.181 382.62 149.27 382.926 149.45C383.233 149.629 383.46 149.853 383.611 150.125V149.26H384.408V154.005H383.611V153.122C383.455 153.398 383.222 153.628 382.914 153.81C382.605 153.993 382.246 154.083 381.836 154.083C381.414 154.083 381.033 153.979 380.692 153.771C380.352 153.563 380.084 153.271 379.887 152.896C379.69 152.521 379.592 152.093 379.592 151.615C379.592 151.13 379.691 150.704 379.887 150.338ZM383.394 150.689C383.249 150.423 383.055 150.219 382.81 150.079C382.564 149.937 382.294 149.866 382 149.866C381.706 149.866 381.437 149.935 381.194 150.074C380.951 150.213 380.757 150.415 380.614 150.68C380.469 150.946 380.397 151.257 380.397 151.616C380.397 151.979 380.469 152.296 380.614 152.564C380.758 152.832 380.952 153.037 381.194 153.178C381.436 153.319 381.705 153.39 382 153.39C382.295 153.39 382.563 153.32 382.81 153.178C383.055 153.036 383.249 152.831 383.394 152.564C383.539 152.295 383.611 151.982 383.611 151.624C383.611 151.266 383.539 150.955 383.394 150.689Z" fill="black"/>
<path id="Vector_33" d="M385.739 150.338C385.935 149.971 386.208 149.687 386.557 149.484C386.906 149.282 387.306 149.181 387.756 149.181C388.339 149.181 388.819 149.323 389.197 149.605C389.576 149.888 389.825 150.281 389.946 150.783H389.097C389.017 150.495 388.86 150.266 388.625 150.099C388.392 149.931 388.102 149.848 387.755 149.848C387.305 149.848 386.941 150.002 386.664 150.311C386.387 150.62 386.248 151.057 386.248 151.623C386.248 152.195 386.387 152.637 386.664 152.948C386.94 153.26 387.305 153.416 387.755 153.416C388.102 153.416 388.39 153.335 388.621 153.174C388.851 153.012 389.011 152.781 389.097 152.481H389.946C389.819 152.966 389.565 153.355 389.184 153.646C388.803 153.938 388.327 154.084 387.755 154.084C387.305 154.084 386.904 153.982 386.556 153.78C386.206 153.579 385.934 153.293 385.738 152.924C385.542 152.554 385.443 152.121 385.443 151.624C385.443 151.134 385.542 150.705 385.738 150.339L385.739 150.338Z" fill="black"/>
<path id="Vector_34" d="M391.959 149.91V152.707C391.959 152.937 392.008 153.101 392.106 153.196C392.204 153.291 392.375 153.339 392.617 153.339H393.197V154.006H392.487C392.049 154.006 391.719 153.905 391.5 153.703C391.281 153.501 391.171 153.169 391.171 152.707V149.91H390.557V149.261H391.171V148.066H391.959V149.261H393.197V149.91H391.959Z" fill="black"/>
<path id="Vector_35" d="M394.175 148.334C394.071 148.23 394.02 148.103 394.02 147.953C394.02 147.803 394.072 147.676 394.175 147.571C394.279 147.467 394.406 147.416 394.557 147.416C394.701 147.416 394.824 147.468 394.924 147.571C395.026 147.675 395.076 147.802 395.076 147.953C395.076 148.102 395.025 148.229 394.924 148.334C394.823 148.438 394.7 148.489 394.557 148.489C394.407 148.489 394.28 148.437 394.175 148.334ZM394.938 149.26V154.005H394.15V149.26H394.938Z" fill="black"/>
<path id="Vector_36" d="M397.139 153.78C396.779 153.579 396.495 153.291 396.29 152.919C396.085 152.547 395.982 152.115 395.982 151.624C395.982 151.14 396.087 150.711 396.298 150.339C396.509 149.966 396.796 149.681 397.159 149.482C397.523 149.283 397.93 149.183 398.381 149.183C398.832 149.183 399.238 149.283 399.602 149.482C399.966 149.681 400.252 149.965 400.463 150.335C400.674 150.705 400.779 151.135 400.779 151.625C400.779 152.115 400.671 152.548 400.454 152.92C400.238 153.292 399.945 153.58 399.575 153.781C399.206 153.983 398.796 154.085 398.346 154.085C397.902 154.085 397.499 153.983 397.138 153.781L397.139 153.78ZM399.144 153.191C399.392 153.059 399.593 152.86 399.746 152.594C399.899 152.328 399.975 152.005 399.975 151.623C399.975 151.241 399.9 150.919 399.75 150.653C399.6 150.387 399.403 150.19 399.161 150.06C398.918 149.93 398.655 149.865 398.373 149.865C398.084 149.865 397.82 149.93 397.58 150.06C397.341 150.19 397.148 150.387 397.005 150.653C396.86 150.919 396.788 151.242 396.788 151.623C396.788 152.011 396.858 152.337 397 152.602C397.142 152.868 397.331 153.066 397.567 153.196C397.803 153.326 398.063 153.39 398.346 153.39C398.629 153.39 398.896 153.325 399.144 153.191Z" fill="black"/>
<path id="Vector_37" d="M405.536 149.697C405.894 150.047 406.073 150.551 406.073 151.209V154.006H405.294V151.321C405.294 150.847 405.175 150.485 404.939 150.234C404.703 149.983 404.379 149.857 403.969 149.857C403.553 149.857 403.223 149.987 402.978 150.247C402.732 150.507 402.61 150.886 402.61 151.382V154.006H401.822V149.261H402.61V149.936C402.765 149.694 402.978 149.506 403.247 149.374C403.515 149.241 403.81 149.175 404.134 149.175C404.712 149.175 405.179 149.35 405.537 149.698L405.536 149.697Z" fill="black"/>
<path id="Vector_38" d="M408.065 153.897C407.776 153.773 407.548 153.6 407.381 153.377C407.213 153.155 407.121 152.899 407.104 152.61H407.917C407.94 152.847 408.052 153.041 408.251 153.19C408.45 153.34 408.711 153.416 409.034 153.416C409.335 153.416 409.571 153.35 409.744 153.217C409.918 153.084 410.004 152.917 410.004 152.715C410.004 152.507 409.912 152.353 409.728 152.251C409.542 152.15 409.257 152.051 408.871 151.952C408.518 151.86 408.231 151.766 408.009 151.671C407.787 151.576 407.597 151.435 407.438 151.247C407.28 151.059 407.2 150.812 407.2 150.506C407.2 150.264 407.272 150.042 407.417 149.84C407.562 149.638 407.767 149.478 408.032 149.36C408.297 149.241 408.6 149.182 408.941 149.182C409.466 149.182 409.89 149.315 410.213 149.58C410.536 149.845 410.71 150.209 410.733 150.671H409.945C409.928 150.423 409.829 150.224 409.646 150.073C409.464 149.923 409.22 149.848 408.915 149.848C408.632 149.848 408.407 149.909 408.239 150.03C408.072 150.151 407.988 150.31 407.988 150.506C407.988 150.662 408.039 150.791 408.139 150.892C408.241 150.994 408.368 151.074 408.521 151.134C408.673 151.195 408.885 151.263 409.157 151.338C409.498 151.43 409.775 151.522 409.989 151.61C410.202 151.7 410.385 151.834 410.539 152.012C410.691 152.192 410.771 152.425 410.777 152.714C410.777 152.974 410.705 153.207 410.56 153.415C410.415 153.623 410.212 153.786 409.95 153.904C409.688 154.022 409.386 154.082 409.045 154.082C408.682 154.082 408.356 154.02 408.066 153.895L408.065 153.897Z" fill="black"/>
<path id="Vector_39" d="M371.89 159.795C372.179 159.948 372.406 160.178 372.57 160.483C372.735 160.789 372.817 161.162 372.817 161.6V164.397H372.038V161.712C372.038 161.238 371.919 160.876 371.683 160.625C371.447 160.374 371.123 160.248 370.713 160.248C370.297 160.248 369.967 160.378 369.722 160.638C369.476 160.898 369.354 161.277 369.354 161.773V164.397H368.566V157.989H369.354V160.327C369.509 160.085 369.725 159.897 369.999 159.765C370.273 159.632 370.581 159.566 370.922 159.566C371.279 159.566 371.603 159.642 371.892 159.795H371.89Z" fill="black"/>
<path id="Vector_40" d="M378.411 162.319H374.618C374.647 162.787 374.807 163.152 375.098 163.415C375.39 163.678 375.744 163.809 376.159 163.809C376.5 163.809 376.784 163.73 377.013 163.571C377.241 163.413 377.401 163.2 377.493 162.934H378.342C378.215 163.39 377.961 163.761 377.58 164.047C377.199 164.332 376.726 164.476 376.159 164.476C375.709 164.476 375.306 164.374 374.951 164.172C374.597 163.971 374.318 163.683 374.116 163.311C373.914 162.939 373.812 162.507 373.812 162.016C373.812 161.525 373.911 161.096 374.107 160.726C374.303 160.357 374.579 160.073 374.934 159.873C375.288 159.674 375.697 159.574 376.159 159.574C376.61 159.574 377.008 159.672 377.354 159.868C377.7 160.064 377.967 160.335 378.155 160.678C378.343 161.022 378.438 161.41 378.438 161.843C378.438 161.993 378.428 162.152 378.411 162.32V162.319ZM377.423 160.903C377.29 160.686 377.11 160.522 376.882 160.409C376.653 160.297 376.402 160.241 376.124 160.241C375.726 160.241 375.387 160.368 375.106 160.622C374.825 160.876 374.666 161.227 374.626 161.679H377.622C377.622 161.378 377.556 161.12 377.423 160.904V160.903Z" fill="black"/>
<path id="Vector_41" d="M380.858 159.79C381.115 159.641 381.428 159.565 381.797 159.565V160.378H381.59C380.706 160.378 380.265 160.857 380.265 161.816V164.397H379.477V159.652H380.265V160.423C380.404 160.152 380.601 159.941 380.858 159.79Z" fill="black"/>
<path id="Vector_42" d="M387.009 162.319H383.216C383.245 162.787 383.405 163.152 383.696 163.415C383.988 163.678 384.342 163.809 384.757 163.809C385.098 163.809 385.382 163.73 385.611 163.571C385.839 163.413 385.999 163.2 386.091 162.934H386.94C386.813 163.39 386.559 163.761 386.178 164.047C385.797 164.332 385.324 164.476 384.757 164.476C384.307 164.476 383.904 164.374 383.549 164.172C383.195 163.971 382.916 163.683 382.714 163.311C382.512 162.939 382.41 162.507 382.41 162.016C382.41 161.525 382.509 161.096 382.705 160.726C382.901 160.357 383.177 160.073 383.532 159.873C383.886 159.674 384.295 159.574 384.757 159.574C385.208 159.574 385.606 159.672 385.952 159.868C386.298 160.064 386.565 160.335 386.753 160.678C386.941 161.022 387.035 161.41 387.035 161.843C387.035 161.993 387.026 162.152 387.009 162.32V162.319ZM386.022 160.903C385.889 160.686 385.709 160.522 385.481 160.409C385.252 160.297 385.001 160.241 384.723 160.241C384.325 160.241 383.986 160.368 383.705 160.622C383.424 160.876 383.265 161.227 383.225 161.679H386.221C386.221 161.378 386.155 161.12 386.022 160.904V160.903Z" fill="black"/>
<path id="Vector_43" d="M394.473 159.652L391.616 166.631H390.802L391.738 164.345L389.824 159.652H390.699L392.188 163.497L393.661 159.652H394.474H394.473Z" fill="black"/>
<path id="Vector_44" d="M399.566 162.319H395.773C395.802 162.787 395.962 163.152 396.253 163.415C396.545 163.678 396.899 163.809 397.314 163.809C397.655 163.809 397.939 163.73 398.168 163.571C398.396 163.413 398.556 163.2 398.648 162.934H399.497C399.37 163.39 399.116 163.761 398.735 164.047C398.354 164.332 397.881 164.476 397.314 164.476C396.864 164.476 396.461 164.374 396.106 164.172C395.752 163.971 395.473 163.683 395.271 163.311C395.069 162.939 394.967 162.507 394.967 162.016C394.967 161.525 395.066 161.096 395.262 160.726C395.458 160.357 395.734 160.073 396.089 159.873C396.443 159.674 396.852 159.574 397.314 159.574C397.765 159.574 398.163 159.672 398.509 159.868C398.855 160.064 399.122 160.335 399.31 160.678C399.498 161.022 399.592 161.41 399.592 161.843C399.592 161.993 399.583 162.152 399.566 162.32V162.319ZM398.579 160.903C398.446 160.686 398.266 160.522 398.038 160.409C397.809 160.297 397.558 160.241 397.28 160.241C396.882 160.241 396.543 160.368 396.262 160.622C395.981 160.876 395.822 161.227 395.782 161.679H398.778C398.778 161.378 398.712 161.12 398.579 160.904V160.903Z" fill="black"/>
<path id="Vector_45" d="M401.591 160.301V163.098C401.591 163.328 401.64 163.492 401.738 163.587C401.836 163.682 402.007 163.73 402.249 163.73H402.829V164.397H402.119C401.681 164.397 401.351 164.296 401.132 164.094C400.913 163.892 400.803 163.56 400.803 163.098V160.301H400.189V159.652H400.803V158.457H401.591V159.652H402.829V160.301H401.591Z" fill="black"/>
<path id="Vector_46" opacity="0.1" d="M264.844 273.938L201.552 273.938C201.552 273.938 191.092 273.985 191.092 271.943C191.092 270.038 200.451 269.947 207.47 269.947C214.335 269.947 221.682 269.947 226.453 269.947C226.565 269.947 258.023 269.856 258.083 269.947C258.554 270.825 259.469 271.864 260.342 272.321C262.129 273.651 264.845 273.938 264.845 273.938L264.844 273.938Z" fill="#181828">
                                    <animate attributeName="d" values="M264.844 273.938L201.552 273.938C201.552 273.938 191.092 273.985 191.092 271.943C191.092 270.038 200.451 269.947 207.47 269.947C214.335 269.947 221.682 269.947 226.453 269.947C226.565 269.947 258.023 269.856 258.083 269.947C258.554 270.825 259.469 271.864 260.342 272.321C262.129 273.651 264.845 273.938 264.845 273.938L264.844 273.938Z;M248.752 273.938L185.46 273.938C185.46 273.938 175 273.985 175 271.943C175 270.038 184.359 269.947 191.378 269.947C198.243 269.947 205.59 269.947 210.361 269.947C210.473 269.947 241.931 269.856 241.991 269.947C242.462 270.825 243.377 271.864 244.25 272.321C246.037 273.651 248.753 273.938 248.753 273.938L248.752 273.938Z;M264.844 273.938L201.552 273.938C201.552 273.938 191.092 273.985 191.092 271.943C191.092 270.038 200.451 269.947 207.47 269.947C214.335 269.947 221.682 269.947 226.453 269.947C226.565 269.947 258.023 269.856 258.083 269.947C258.554 270.825 259.469 271.864 260.342 272.321C262.129 273.651 264.845 273.938 264.845 273.938L264.844 273.938Z" begin="0s" dur="6s" repeatCount="indefinite" fill="freeze" calcMode="linear" keyTimes="0;0.5;1"/></path>
<path id="Vector_47" d="M326.845 92.6084C326.845 92.6084 326.097 96.3494 327.843 98.8854C327.843 98.8854 329.838 98.1784 330.877 99.7584C331.258 100.337 331.376 101.795 330.586 102.709" stroke="#181828" stroke-miterlimit="10" stroke-linecap="round"/>
<path id="Vector_48" d="M302.99 116.98C302.99 116.98 307.155 119.804 315.143 119.808" stroke="#181828" stroke-miterlimit="10" stroke-linecap="round"/>
<path id="Vector_49" d="M312.65 218.62C312.65 218.62 310.623 228.394 300.727 230.422" stroke="#181828" stroke-linecap="round" stroke-linejoin="round"/>
<path id="Vector_50" d="M326.839 204.138C328.683 204.535 333.235 206.021 334.528 211.146C336.162 217.622 333.015 225.913 327.719 227.426C316.273 230.696 311.348 215.231 311.348 215.231" stroke="#181828" stroke-linecap="round" stroke-linejoin="round"/>
<path id="Vector_51" d="M317.158 206.727C317.158 206.727 322.242 220.163 325.51 227.486" stroke="#181828" stroke-linecap="round" stroke-linejoin="round"/>
<path id="Vector_52" d="M324.725 205.88C324.725 205.88 328.719 217.621 330.051 226.094" stroke="#181828" stroke-linecap="round" stroke-linejoin="round"/>
<path id="Vector_53" d="M329.809 200.13C329.809 200.13 331.14 203.58 331.927 206.666" stroke="#181828" stroke-linecap="round" stroke-linejoin="round"/>
<path id="Vector_54" opacity="0.3" d="M311.757 102.859C314.707 102.354 316.708 105.124 316.802 107.519C316.893 109.85 315.436 112.057 312.329 112.288C309.351 112.509 307.785 110.698 307.195 108.253C306.633 105.923 308.204 103.124 311.757 102.859Z" fill="#FFD3C7">
                                    <animate attributeName="d" values="M311.757 102.859C314.707 102.354 316.708 105.124 316.802 107.519C316.893 109.85 315.436 112.057 312.329 112.288C309.351 112.509 307.785 110.698 307.195 108.253C306.633 105.923 308.204 103.124 311.757 102.859Z;M311.768 102.07C315.409 101.485 317.879 104.69 317.995 107.461C318.107 110.158 316.309 112.712 312.474 112.979C308.799 113.235 306.866 111.139 306.138 108.31C305.444 105.615 307.383 102.376 311.768 102.07Z;M311.757 102.859C314.707 102.354 316.708 105.124 316.802 107.519C316.893 109.85 315.436 112.057 312.329 112.288C309.351 112.509 307.785 110.698 307.195 108.253C306.633 105.923 308.204 103.124 311.757 102.859Z" begin="0s" dur="6s" repeatCount="indefinite" fill="freeze" calcMode="linear" keyTimes="0;0.5;1"/></path>
<path id="Vector_55" d="M320.639 97.2233C320.792 96.4588 320.302 95.7155 319.544 95.563C318.786 95.4106 318.047 95.9068 317.894 96.6714C317.74 97.4359 318.23 98.1792 318.988 98.3316C319.746 98.4841 320.485 97.9878 320.639 97.2233Z" fill="#181828"/>
<path id="Vector_56" d="M333.275 95.6149C333.429 94.8504 332.939 94.1071 332.181 93.9547C331.423 93.8023 330.684 94.2985 330.53 95.063C330.377 95.8275 330.866 96.5708 331.624 96.7232C332.383 96.8757 333.122 96.3795 333.275 95.6149Z" fill="#181828"/>
<path id="Vector_57" d="M293.573 110.115C293.232 110.211 292.923 110 292.73 109.684C291.768 108.113 290.448 108.328 290.353 108.326C289.966 108.321 289.651 107.998 289.65 107.603C289.65 107.208 289.958 106.902 290.345 106.89C290.782 106.877 292.661 106.719 293.951 109.075C294.196 109.522 294.004 109.946 293.645 110.09C293.621 110.099 293.598 110.107 293.574 110.114L293.573 110.115Z" fill="#181828"/>
<path id="Vector_58" d="M321.926 106.644C321.926 106.644 324.475 109.637 329.297 107.752" stroke="#181828" stroke-miterlimit="10" stroke-linecap="round"/>
<path id="Vector_59" d="M291.507 232.504L294.601 195.1L266.113 194.324L272.431 172.543" stroke="#D8DDC0" stroke-miterlimit="10"/>
<path id="Vector_60" d="M345.205 172.758L348.088 195.4" stroke="#D8DDC0" stroke-miterlimit="10"/>
<path id="Vector_61" d="M447.608 233.274L264.33 233.274C260.434 233.274 257.275 236.433 257.275 240.329L257.275 266.414C257.275 270.311 260.434 273.469 264.33 273.469L447.608 273.469C451.505 273.469 454.663 270.311 454.663 266.414L454.663 240.329C454.663 236.433 451.505 233.274 447.608 233.274Z" stroke="#181828" stroke-miterlimit="10">
                                    <animate attributeName="d" values="M447.608 233.274L264.33 233.274C260.434 233.274 257.275 236.433 257.275 240.329L257.275 266.414C257.275 270.311 260.434 273.469 264.33 273.469L447.608 273.469C451.505 273.469 454.663 270.311 454.663 266.414L454.663 240.329C454.663 236.433 451.505 233.274 447.608 233.274Z;M442.53 233L248.47 233C244.344 233 241 236.143 241 240.021L241 265.979C241 269.857 244.344 273 248.47 273L442.53 273C446.656 273 450 269.857 450 265.979L450 240.021C450 236.143 446.656 233 442.53 233Z;M447.608 233.274L264.33 233.274C260.434 233.274 257.275 236.433 257.275 240.329L257.275 266.414C257.275 270.311 260.434 273.469 264.33 273.469L447.608 273.469C451.505 273.469 454.663 270.311 454.663 266.414L454.663 240.329C454.663 236.433 451.505 233.274 447.608 233.274Z" begin="0s" dur="6s" repeatCount="indefinite" fill="freeze" calcMode="linear" keyTimes="0;0.5;1"/></path>
<path id="Vector_62" d="M465.928 249.102C465.917 248.527 465.895 248.175 465.183 248.123C464.415 248.045 463.035 248.084 462 248.084C461.677 248.084 459.385 248.097 455.735 248.097L399.797 248.097C382.149 248.097 367.405 248.11 366.537 248.11C361.207 248.149 356.667 248.267 352.027 248.319C350.936 248.332 350.692 248.502 350.714 249.533C350.747 250.604 350.781 251.257 350.781 252.327C350.792 253.163 350.948 253.345 351.604 253.359C353.095 253.359 375.461 253.359 399.964 253.346C419.626 253.333 440.669 253.307 453.399 253.255C459.475 253.229 463.67 253.19 464.905 253.164C465.561 253.138 465.906 252.968 465.918 252.198C465.94 251.101 465.94 249.991 465.929 249.103L465.928 249.102Z" fill="#FFD3C7">
                                    <animate attributeName="d" values="M465.928 249.102C465.917 248.527 465.895 248.175 465.183 248.123C464.415 248.045 463.035 248.084 462 248.084C461.677 248.084 459.385 248.097 455.735 248.097L399.797 248.097C382.149 248.097 367.405 248.11 366.537 248.11C361.207 248.149 356.667 248.267 352.027 248.319C350.936 248.332 350.692 248.502 350.714 249.533C350.747 250.604 350.781 251.257 350.781 252.327C350.792 253.163 350.948 253.345 351.604 253.359C353.095 253.359 375.461 253.359 399.964 253.346C419.626 253.333 440.669 253.307 453.399 253.255C459.475 253.229 463.67 253.19 464.905 253.164C465.561 253.138 465.906 252.968 465.918 252.198C465.94 251.101 465.94 249.991 465.929 249.103L465.928 249.102Z;M460.215 249.102C460.204 248.527 460.182 248.175 459.47 248.123C458.702 248.045 457.322 248.084 456.287 248.084C455.964 248.084 453.672 248.097 450.022 248.097L394.084 248.097C376.436 248.097 361.692 248.11 360.824 248.11C355.494 248.149 350.954 248.267 346.314 248.319C345.223 248.332 344.979 248.502 345.001 249.533C345.034 250.604 345.068 251.257 345.068 252.327C345.079 253.163 345.235 253.345 345.891 253.359C347.382 253.359 369.748 253.359 394.251 253.346C413.913 253.333 434.956 253.307 447.686 253.255C453.762 253.229 457.957 253.19 459.192 253.164C459.848 253.138 460.193 252.968 460.205 252.198C460.227 251.101 460.227 249.991 460.216 249.103L460.215 249.102Z;M465.928 249.102C465.917 248.527 465.895 248.175 465.183 248.123C464.415 248.045 463.035 248.084 462 248.084C461.677 248.084 459.385 248.097 455.735 248.097L399.797 248.097C382.149 248.097 367.405 248.11 366.537 248.11C361.207 248.149 356.667 248.267 352.027 248.319C350.936 248.332 350.692 248.502 350.714 249.533C350.747 250.604 350.781 251.257 350.781 252.327C350.792 253.163 350.948 253.345 351.604 253.359C353.095 253.359 375.461 253.359 399.964 253.346C419.626 253.333 440.669 253.307 453.399 253.255C459.475 253.229 463.67 253.19 464.905 253.164C465.561 253.138 465.906 252.968 465.918 252.198C465.94 251.101 465.94 249.991 465.929 249.103L465.928 249.102Z" begin="0s" dur="6s" repeatCount="indefinite" fill="freeze" calcMode="linear" keyTimes="0;0.5;1"/></path>
<path id="Vector_63" d="M233.713 137.981C233.713 137.981 252.668 138.979 265.637 152.945" stroke="#FFD3C7" stroke-miterlimit="10" stroke-linecap="round">
                                    <animate attributeName="d" values="M233.713 137.981C233.713 137.981 252.668 138.979 265.637 152.945;M224 137.031C224 137.031 242.929 135.628 257.558 147.844;M233.713 137.981C233.713 137.981 252.668 138.979 265.637 152.945" begin="0s" dur="6s" repeatCount="indefinite" fill="freeze" calcMode="linear" keyTimes="0;0.5;1"/></path>
<path id="Vector_64" d="M471.922 202.361C470.92 202.316 469.892 202.382 468.865 202.588C462.733 203.801 458.373 209.477 458.751 215.708C458.757 215.757 458.755 215.806 458.762 215.855C459.296 223.177 465.875 228.417 473.033 227.443C473.858 227.329 474.649 227.146 475.406 226.884C479.681 225.432 484.287 225.739 488.336 227.731C491.445 229.259 495.018 229.913 498.706 229.408C508.752 228.04 515.722 218.647 514.047 208.575C512.508 199.374 504.012 192.791 494.719 193.61C490.609 193.971 486.974 195.663 484.173 198.21C480.856 201.227 476.402 202.562 471.924 202.361L471.922 202.361Z" fill="#5F7CFF">
                                    <animate attributeName="d" values="M471.922 202.361C470.92 202.316 469.892 202.382 468.865 202.588C462.733 203.801 458.373 209.477 458.751 215.708C458.757 215.757 458.755 215.806 458.762 215.855C459.296 223.177 465.875 228.417 473.033 227.443C473.858 227.329 474.649 227.146 475.406 226.884C479.681 225.432 484.287 225.739 488.336 227.731C491.445 229.259 495.018 229.913 498.706 229.408C508.752 228.04 515.722 218.647 514.047 208.575C512.508 199.374 504.012 192.791 494.719 193.61C490.609 193.971 486.974 195.663 484.173 198.21C480.856 201.227 476.402 202.562 471.924 202.361L471.922 202.361Z;M474.557 202.267C473.557 202.184 472.528 202.21 471.494 202.377C465.32 203.354 460.745 208.859 460.884 215.1C460.888 215.149 460.884 215.198 460.889 215.247C461.142 222.584 467.516 228.072 474.706 227.373C475.535 227.291 476.332 227.139 477.099 226.906C481.426 225.619 486.017 226.102 489.987 228.248C493.035 229.894 496.58 230.684 500.285 230.321C510.376 229.339 517.701 220.22 516.413 210.091C515.228 200.838 506.99 193.934 497.673 194.396C493.552 194.6 489.855 196.151 486.958 198.589C483.528 201.477 479.026 202.64 474.559 202.267L474.557 202.267Z;M471.922 202.361C470.92 202.316 469.892 202.382 468.865 202.588C462.733 203.801 458.373 209.477 458.751 215.708C458.757 215.757 458.755 215.806 458.762 215.855C459.296 223.177 465.875 228.417 473.033 227.443C473.858 227.329 474.649 227.146 475.406 226.884C479.681 225.432 484.287 225.739 488.336 227.731C491.445 229.259 495.018 229.913 498.706 229.408C508.752 228.04 515.722 218.647 514.047 208.575C512.508 199.374 504.012 192.791 494.719 193.61C490.609 193.971 486.974 195.663 484.173 198.21C480.856 201.227 476.402 202.562 471.924 202.361L471.922 202.361Z" begin="0s" dur="6s" repeatCount="indefinite" fill="freeze" calcMode="linear" keyTimes="0;0.5;1"/></path>
<path id="Vector_65" d="M441.704 149.267C440.359 153.928 440.693 158.639 442.304 162.795C444.215 167.719 443.804 173.177 441.69 178.028C441.222 179.096 440.862 180.261 440.658 181.474C439.395 188.787 443.865 196.043 450.969 198.19C451.487 198.347 452.007 198.476 452.531 198.575C460.287 200.052 467.901 195.152 469.737 187.394C469.957 186.437 470.084 185.488 470.13 184.543C470.337 179.234 472.626 174.3 476.513 170.692C479.508 167.917 481.733 164.267 482.747 159.997C485.479 148.376 478.094 136.74 466.326 134.342C455.547 132.138 444.722 138.696 441.704 149.267Z" fill="#5F7CFF">
                                    <animate attributeName="d" values="M441.704 149.267C440.359 153.928 440.693 158.639 442.304 162.795C444.215 167.719 443.804 173.177 441.69 178.028C441.222 179.096 440.862 180.261 440.658 181.474C439.395 188.787 443.865 196.043 450.969 198.19C451.487 198.347 452.007 198.476 452.531 198.575C460.287 200.052 467.901 195.152 469.737 187.394C469.957 186.437 470.084 185.488 470.13 184.543C470.337 179.234 472.626 174.3 476.513 170.692C479.508 167.917 481.733 164.267 482.747 159.997C485.479 148.376 478.094 136.74 466.326 134.342C455.547 132.138 444.722 138.696 441.704 149.267Z;M442.259 147.351C440.914 152.012 441.248 156.723 442.859 160.879C444.77 165.803 444.359 171.261 442.245 176.112C441.777 177.18 441.417 178.345 441.213 179.558C439.95 186.871 444.42 194.127 451.524 196.274C452.042 196.431 452.562 196.56 453.086 196.659C460.842 198.136 468.456 193.236 470.292 185.478C470.512 184.521 470.639 183.572 470.685 182.627C470.892 177.318 473.181 172.384 477.068 168.776C480.063 166.001 482.288 162.351 483.302 158.081C486.034 146.46 478.649 134.824 466.881 132.426C456.102 130.222 445.277 136.78 442.259 147.351Z;M441.704 149.267C440.359 153.928 440.693 158.639 442.304 162.795C444.215 167.719 443.804 173.177 441.69 178.028C441.222 179.096 440.862 180.261 440.658 181.474C439.395 188.787 443.865 196.043 450.969 198.19C451.487 198.347 452.007 198.476 452.531 198.575C460.287 200.052 467.901 195.152 469.737 187.394C469.957 186.437 470.084 185.488 470.13 184.543C470.337 179.234 472.626 174.3 476.513 170.692C479.508 167.917 481.733 164.267 482.747 159.997C485.479 148.376 478.094 136.74 466.326 134.342C455.547 132.138 444.722 138.696 441.704 149.267Z" begin="0s" dur="6s" repeatCount="indefinite" fill="freeze" calcMode="linear" keyTimes="0;0.5;1"/></path>
<path id="Vector_66" d="M428.9 233.077C457.281 213.403 498.937 208.978 498.937 208.978" stroke="#181828" stroke-linecap="round" stroke-linejoin="round"/>
<path id="Vector_67" d="M461.668 163.215C461.668 163.215 451.961 206.659 428.807 233.254" stroke="#181828" stroke-linecap="round" stroke-linejoin="round"/>
<path id="Vector_68" d="M484.199 116.461C488.6 116.72 496.869 117.047 501.639 116.861C502.082 116.844 502.322 116.527 502.352 115.092C502.393 113.026 502.42 110.96 502.438 109.307C502.45 108.22 502.443 107.567 501.963 107.431C501.441 107.273 500.506 107.306 499.808 107.277C498.327 107.239 495.922 107.126 494.436 107.088C490.827 107.005 487.755 107.081 484.617 107.047C483.881 107.039 483.713 107.342 483.701 109.277C483.693 111.278 483.699 112.518 483.672 114.519C483.655 116.085 483.755 116.435 484.198 116.461L484.199 116.461Z" fill="#EC4F04">
                                    <animate attributeName="d" values="M484.199 116.461C488.6 116.72 496.869 117.047 501.639 116.861C502.082 116.844 502.322 116.527 502.352 115.092C502.393 113.026 502.42 110.96 502.438 109.307C502.45 108.22 502.443 107.567 501.963 107.431C501.441 107.273 500.506 107.306 499.808 107.277C498.327 107.239 495.922 107.126 494.436 107.088C490.827 107.005 487.755 107.081 484.617 107.047C483.881 107.039 483.713 107.342 483.701 109.277C483.693 111.278 483.699 112.518 483.672 114.519C483.655 116.085 483.755 116.435 484.198 116.461L484.199 116.461Z;M480.529 116.461C484.93 116.72 493.199 117.047 497.969 116.861C498.412 116.844 498.652 116.527 498.682 115.092C498.723 113.026 498.75 110.96 498.768 109.307C498.78 108.22 498.773 107.567 498.293 107.431C497.771 107.273 496.836 107.306 496.138 107.277C494.657 107.239 492.252 107.126 490.766 107.088C487.157 107.005 484.085 107.081 480.947 107.047C480.211 107.039 480.043 107.342 480.031 109.277C480.023 111.278 480.029 112.518 480.002 114.519C479.985 116.085 480.085 116.435 480.528 116.461L480.529 116.461Z;M484.199 116.461C488.6 116.72 496.869 117.047 501.639 116.861C502.082 116.844 502.322 116.527 502.352 115.092C502.393 113.026 502.42 110.96 502.438 109.307C502.45 108.22 502.443 107.567 501.963 107.431C501.441 107.273 500.506 107.306 499.808 107.277C498.327 107.239 495.922 107.126 494.436 107.088C490.827 107.005 487.755 107.081 484.617 107.047C483.881 107.039 483.713 107.342 483.701 109.277C483.693 111.278 483.699 112.518 483.672 114.519C483.655 116.085 483.755 116.435 484.198 116.461L484.199 116.461Z" begin="0s" dur="6s" repeatCount="indefinite" fill="freeze" calcMode="linear" keyTimes="0;0.5;1"/></path>
</g>
<defs>
<clipPath id="clip0_1094_908">
<rect width="680.379" height="342.185" fill="white"/>
</clipPath>
</defs>
</svg>